<?xml version="1.0" encoding="UTF-8" standalone="no"?>
<!-- Created with Inkscape (http://www.inkscape.org/) -->

<svg
   xmlns:dc="http://purl.org/dc/elements/1.1/"
   xmlns:cc="http://creativecommons.org/ns#"
   xmlns:rdf="http://www.w3.org/1999/02/22-rdf-syntax-ns#"
   xmlns:svg="http://www.w3.org/2000/svg"
   xmlns="http://www.w3.org/2000/svg"
   xmlns:xlink="http://www.w3.org/1999/xlink"
   xmlns:sodipodi="http://sodipodi.sourceforge.net/DTD/sodipodi-0.dtd"
   xmlns:inkscape="http://www.inkscape.org/namespaces/inkscape"
   inkscape:version="0.48.5 r10040"
   version="1.1"
   id="svg2"
   height="744.09448"
   width="1052.3622"
   sodipodi:docname="New document 1">
  <defs
     id="defs4">
    <pattern
       inkscape:collect="always"
       xlink:href="#pattern6164"
       id="pattern6994"
       patternTransform="translate(795.20023,476.23273)" />
    <pattern
       inkscape:collect="always"
       xlink:href="#pattern6159"
       id="pattern6164"
       patternTransform="translate(679.03269,408.55251)" />
    <marker
       inkscape:stockid="Arrow2Send"
       orient="auto"
       refY="0.0"
       refX="0.0"
       id="Arrow2Send"
       style="overflow:visible;">
      <path
         id="path5566"
         style="fill-rule:evenodd;stroke-width:0.62500000;stroke-linejoin:round;"
         d="M 8.7185878,4.0337352 L -2.2072895,0.016013256 L 8.7185884,-4.0017078 C 6.9730900,-1.6296469 6.9831476,1.6157441 8.7185878,4.0337352 z "
         transform="scale(0.3) rotate(180) translate(-2.3,0)" />
    </marker>
    <marker
       inkscape:stockid="Arrow2Mend"
       orient="auto"
       refY="0.0"
       refX="0.0"
       id="Arrow2Mend"
       style="overflow:visible;">
      <path
         id="path5560"
         style="fill-rule:evenodd;stroke-width:0.62500000;stroke-linejoin:round;"
         d="M 8.7185878,4.0337352 L -2.2072895,0.016013256 L 8.7185884,-4.0017078 C 6.9730900,-1.6296469 6.9831476,1.6157441 8.7185878,4.0337352 z "
         transform="scale(0.6) rotate(180) translate(0,0)" />
    </marker>
    <pattern
       patternUnits="userSpaceOnUse"
       width="37.205352"
       height="13.288855"
       patternTransform="translate(644.6875,399.46114)"
       id="pattern6159">
      <path
         inkscape:connector-curvature="0"
         id="path5527"
         d="M 0.50685,11.370935 31.61582,3.0353052"
         style="fill:none;stroke:#000000;stroke-width:4;stroke-linecap:butt;stroke-linejoin:miter;stroke-miterlimit:4;stroke-opacity:1;stroke-dasharray:none;marker-end:url(#Arrow2Send)" />
    </pattern>
  </defs>
  <sodipodi:namedview
     id="base"
     pagecolor="#ffffff"
     bordercolor="#666666"
     borderopacity="1.0"
     inkscape:pageopacity="0.0"
     inkscape:pageshadow="2"
     inkscape:zoom="0.49497475"
     inkscape:cx="489.14133"
     inkscape:cy="254.6953"
     inkscape:document-units="px"
     inkscape:current-layer="layer1"
     showgrid="false"
     showguides="true"
     inkscape:guide-bbox="true"
     inkscape:window-width="1280"
     inkscape:window-height="744"
     inkscape:window-x="0"
     inkscape:window-y="0"
     inkscape:window-maximized="1">
    <sodipodi:guide
       orientation="0,1"
       position="568.57143,671.42857"
       id="guide5464" />
  </sodipodi:namedview>
  <metadata
     id="metadata7">
    <rdf:RDF>
      <cc:Work
         rdf:about="">
        <dc:format>image/svg+xml</dc:format>
        <dc:type
           rdf:resource="http://purl.org/dc/dcmitype/StillImage" />
        <dc:title></dc:title>
      </cc:Work>
    </rdf:RDF>
  </metadata>
  <g
     inkscape:label="Layer 1"
     inkscape:groupmode="layer"
     id="layer1"
     transform="translate(0,-308.2677)">
    <flowRoot
       xml:space="preserve"
       id="flowRoot2991"
       style="font-size:40px;font-style:normal;font-weight:normal;text-align:center;line-height:125%;letter-spacing:0px;word-spacing:0px;text-anchor:middle;fill:#000000;fill-opacity:1;stroke:none;font-family:Sans"
       transform="translate(-18.732427,249.966)"><flowRegion
         id="flowRegion2993"><rect
           id="rect2995"
           width="194.70689"
           height="77.024132"
           x="200.01021"
           y="329.93195"
           style="text-align:center;text-anchor:middle" /></flowRegion><flowPara
         id="flowPara2997">Gas</flowPara></flowRoot>    <g
       id="g5466"
       transform="translate(12.857143,-20.890331)">
      <rect
         transform="translate(0,308.2677)"
         y="93.556244"
         x="115.15739"
         height="180"
         width="307.08636"
         id="rect2985"
         style="fill:#f2faff;fill-opacity:1;fill-rule:nonzero;stroke:#000000;stroke-width:2;stroke-linecap:square;stroke-miterlimit:4;stroke-opacity:1;stroke-dasharray:none;stroke-dashoffset:0" />
      <path
         transform="matrix(2.7749459,0,0,2.7749459,-1088.6726,-55.115779)"
         d="m 445.71429,173.02306 c 0,1.38071 -1.11928,2.5 -2.5,2.5 -1.38071,0 -2.5,-1.11929 -2.5,-2.5 0,-1.38072 1.11929,-2.5 2.5,-2.5 1.38072,0 2.5,1.11928 2.5,2.5 z"
         sodipodi:ry="2.5"
         sodipodi:rx="2.5"
         sodipodi:cy="173.02306"
         sodipodi:cx="443.21429"
         id="path5223"
         style="fill:#0000ff;fill-opacity:1;fill-rule:nonzero;stroke:none"
         sodipodi:type="arc" />
      <path
         transform="matrix(2.7749459,0,0,2.7749459,-1032.7528,-49.19601)"
         d="m 445.71429,173.02306 c 0,1.38071 -1.11928,2.5 -2.5,2.5 -1.38071,0 -2.5,-1.11929 -2.5,-2.5 0,-1.38072 1.11929,-2.5 2.5,-2.5 1.38072,0 2.5,1.11928 2.5,2.5 z"
         sodipodi:ry="2.5"
         sodipodi:rx="2.5"
         sodipodi:cy="173.02306"
         sodipodi:cx="443.21429"
         id="path5223-9"
         style="fill:#0000ff;fill-opacity:1;fill-rule:nonzero;stroke:none"
         sodipodi:type="arc" />
      <path
         transform="matrix(2.7749459,0,0,2.7749459,-1049.1814,-10.624581)"
         d="m 445.71429,173.02306 c 0,1.38071 -1.11928,2.5 -2.5,2.5 -1.38071,0 -2.5,-1.11929 -2.5,-2.5 0,-1.38072 1.11929,-2.5 2.5,-2.5 1.38072,0 2.5,1.11928 2.5,2.5 z"
         sodipodi:ry="2.5"
         sodipodi:rx="2.5"
         sodipodi:cy="173.02306"
         sodipodi:cx="443.21429"
         id="path5223-8"
         style="fill:#0000ff;fill-opacity:1;fill-rule:nonzero;stroke:none"
         sodipodi:type="arc" />
      <path
         transform="matrix(2.7749459,0,0,2.7749459,-1085.61,2.9468476)"
         d="m 445.71429,173.02306 c 0,1.38071 -1.11928,2.5 -2.5,2.5 -1.38071,0 -2.5,-1.11929 -2.5,-2.5 0,-1.38072 1.11929,-2.5 2.5,-2.5 1.38072,0 2.5,1.11928 2.5,2.5 z"
         sodipodi:ry="2.5"
         sodipodi:rx="2.5"
         sodipodi:cy="173.02306"
         sodipodi:cx="443.21429"
         id="path5223-3"
         style="fill:#0000ff;fill-opacity:1;fill-rule:nonzero;stroke:none"
         sodipodi:type="arc" />
      <path
         transform="matrix(2.7749459,0,0,2.7749459,-1084.8957,47.232562)"
         d="m 445.71429,173.02306 c 0,1.38071 -1.11928,2.5 -2.5,2.5 -1.38071,0 -2.5,-1.11929 -2.5,-2.5 0,-1.38072 1.11929,-2.5 2.5,-2.5 1.38072,0 2.5,1.11928 2.5,2.5 z"
         sodipodi:ry="2.5"
         sodipodi:rx="2.5"
         sodipodi:cy="173.02306"
         sodipodi:cx="443.21429"
         id="path5223-4"
         style="fill:#0000ff;fill-opacity:1;fill-rule:nonzero;stroke:none"
         sodipodi:type="arc" />
      <path
         transform="matrix(2.7749459,0,0,2.7749459,-1039.1814,22.232562)"
         d="m 445.71429,173.02306 c 0,1.38071 -1.11928,2.5 -2.5,2.5 -1.38071,0 -2.5,-1.11929 -2.5,-2.5 0,-1.38072 1.11929,-2.5 2.5,-2.5 1.38072,0 2.5,1.11928 2.5,2.5 z"
         sodipodi:ry="2.5"
         sodipodi:rx="2.5"
         sodipodi:cy="173.02306"
         sodipodi:cx="443.21429"
         id="path5223-48"
         style="fill:#0000ff;fill-opacity:1;fill-rule:nonzero;stroke:none"
         sodipodi:type="arc" />
      <path
         transform="matrix(2.7749459,0,0,2.7749459,-981.32426,-24.19601)"
         d="m 445.71429,173.02306 c 0,1.38071 -1.11928,2.5 -2.5,2.5 -1.38071,0 -2.5,-1.11929 -2.5,-2.5 0,-1.38072 1.11929,-2.5 2.5,-2.5 1.38072,0 2.5,1.11928 2.5,2.5 z"
         sodipodi:ry="2.5"
         sodipodi:rx="2.5"
         sodipodi:cy="173.02306"
         sodipodi:cx="443.21429"
         id="path5223-1"
         style="fill:#0000ff;fill-opacity:1;fill-rule:nonzero;stroke:none"
         sodipodi:type="arc" />
      <path
         transform="matrix(2.7749459,0,0,2.7749459,-926.32426,-47.053152)"
         d="m 445.71429,173.02306 c 0,1.38071 -1.11928,2.5 -2.5,2.5 -1.38071,0 -2.5,-1.11929 -2.5,-2.5 0,-1.38072 1.11929,-2.5 2.5,-2.5 1.38072,0 2.5,1.11928 2.5,2.5 z"
         sodipodi:ry="2.5"
         sodipodi:rx="2.5"
         sodipodi:cy="173.02306"
         sodipodi:cx="443.21429"
         id="path5223-0"
         style="fill:#0000ff;fill-opacity:1;fill-rule:nonzero;stroke:none"
         sodipodi:type="arc" />
      <path
         transform="matrix(2.7749459,0,0,2.7749459,-984.1814,-56.338867)"
         d="m 445.71429,173.02306 c 0,1.38071 -1.11928,2.5 -2.5,2.5 -1.38071,0 -2.5,-1.11929 -2.5,-2.5 0,-1.38072 1.11929,-2.5 2.5,-2.5 1.38072,0 2.5,1.11928 2.5,2.5 z"
         sodipodi:ry="2.5"
         sodipodi:rx="2.5"
         sodipodi:cy="173.02306"
         sodipodi:cx="443.21429"
         id="path5223-99"
         style="fill:#0000ff;fill-opacity:1;fill-rule:nonzero;stroke:none"
         sodipodi:type="arc" />
      <path
         transform="matrix(2.7749459,0,0,2.7749459,-866.32426,-49.19601)"
         d="m 445.71429,173.02306 c 0,1.38071 -1.11928,2.5 -2.5,2.5 -1.38071,0 -2.5,-1.11929 -2.5,-2.5 0,-1.38072 1.11929,-2.5 2.5,-2.5 1.38072,0 2.5,1.11928 2.5,2.5 z"
         sodipodi:ry="2.5"
         sodipodi:rx="2.5"
         sodipodi:cy="173.02306"
         sodipodi:cx="443.21429"
         id="path5223-7"
         style="fill:#0000ff;fill-opacity:1;fill-rule:nonzero;stroke:none"
         sodipodi:type="arc" />
      <path
         transform="matrix(2.7749459,0,0,2.7749459,-825.60997,-28.481724)"
         d="m 445.71429,173.02306 c 0,1.38071 -1.11928,2.5 -2.5,2.5 -1.38071,0 -2.5,-1.11929 -2.5,-2.5 0,-1.38072 1.11929,-2.5 2.5,-2.5 1.38072,0 2.5,1.11928 2.5,2.5 z"
         sodipodi:ry="2.5"
         sodipodi:rx="2.5"
         sodipodi:cy="173.02306"
         sodipodi:cx="443.21429"
         id="path5223-84"
         style="fill:#0000ff;fill-opacity:1;fill-rule:nonzero;stroke:none"
         sodipodi:type="arc" />
      <path
         transform="matrix(2.7749459,0,0,2.7749459,-842.75283,14.375419)"
         d="m 445.71429,173.02306 c 0,1.38071 -1.11928,2.5 -2.5,2.5 -1.38071,0 -2.5,-1.11929 -2.5,-2.5 0,-1.38072 1.11929,-2.5 2.5,-2.5 1.38072,0 2.5,1.11928 2.5,2.5 z"
         sodipodi:ry="2.5"
         sodipodi:rx="2.5"
         sodipodi:cy="173.02306"
         sodipodi:cx="443.21429"
         id="path5223-73"
         style="fill:#0000ff;fill-opacity:1;fill-rule:nonzero;stroke:none"
         sodipodi:type="arc" />
      <path
         transform="matrix(2.7749459,0,0,2.7749459,-892.75283,-32.767438)"
         d="m 445.71429,173.02306 c 0,1.38071 -1.11928,2.5 -2.5,2.5 -1.38071,0 -2.5,-1.11929 -2.5,-2.5 0,-1.38072 1.11929,-2.5 2.5,-2.5 1.38072,0 2.5,1.11928 2.5,2.5 z"
         sodipodi:ry="2.5"
         sodipodi:rx="2.5"
         sodipodi:cy="173.02306"
         sodipodi:cx="443.21429"
         id="path5223-30"
         style="fill:#0000ff;fill-opacity:1;fill-rule:nonzero;stroke:none"
         sodipodi:type="arc" />
      <path
         transform="matrix(2.7749459,0,0,2.7749459,-825.60997,-67.767438)"
         d="m 445.71429,173.02306 c 0,1.38071 -1.11928,2.5 -2.5,2.5 -1.38071,0 -2.5,-1.11929 -2.5,-2.5 0,-1.38072 1.11929,-2.5 2.5,-2.5 1.38072,0 2.5,1.11928 2.5,2.5 z"
         sodipodi:ry="2.5"
         sodipodi:rx="2.5"
         sodipodi:cy="173.02306"
         sodipodi:cx="443.21429"
         id="path5223-5"
         style="fill:#0000ff;fill-opacity:1;fill-rule:nonzero;stroke:none"
         sodipodi:type="arc" />
      <path
         transform="matrix(2.7749459,0,0,2.7749459,-931.32426,-18.481724)"
         d="m 445.71429,173.02306 c 0,1.38071 -1.11928,2.5 -2.5,2.5 -1.38071,0 -2.5,-1.11929 -2.5,-2.5 0,-1.38072 1.11929,-2.5 2.5,-2.5 1.38072,0 2.5,1.11928 2.5,2.5 z"
         sodipodi:ry="2.5"
         sodipodi:rx="2.5"
         sodipodi:cy="173.02306"
         sodipodi:cx="443.21429"
         id="path5223-6"
         style="fill:#0000ff;fill-opacity:1;fill-rule:nonzero;stroke:none"
         sodipodi:type="arc" />
      <path
         transform="matrix(2.7749459,0,0,2.7749459,-977.03855,19.375419)"
         d="m 445.71429,173.02306 c 0,1.38071 -1.11928,2.5 -2.5,2.5 -1.38071,0 -2.5,-1.11929 -2.5,-2.5 0,-1.38072 1.11929,-2.5 2.5,-2.5 1.38072,0 2.5,1.11928 2.5,2.5 z"
         sodipodi:ry="2.5"
         sodipodi:rx="2.5"
         sodipodi:cy="173.02306"
         sodipodi:cx="443.21429"
         id="path5223-62"
         style="fill:#0000ff;fill-opacity:1;fill-rule:nonzero;stroke:none"
         sodipodi:type="arc" />
      <path
         transform="matrix(2.7749459,0,0,2.7749459,-1009.1814,63.661133)"
         d="m 445.71429,173.02306 c 0,1.38071 -1.11928,2.5 -2.5,2.5 -1.38071,0 -2.5,-1.11929 -2.5,-2.5 0,-1.38072 1.11929,-2.5 2.5,-2.5 1.38072,0 2.5,1.11928 2.5,2.5 z"
         sodipodi:ry="2.5"
         sodipodi:rx="2.5"
         sodipodi:cy="173.02306"
         sodipodi:cx="443.21429"
         id="path5223-53"
         style="fill:#0000ff;fill-opacity:1;fill-rule:nonzero;stroke:none"
         sodipodi:type="arc" />
      <path
         transform="matrix(2.7749459,0,0,2.7749459,-1052.7528,69.375419)"
         d="m 445.71429,173.02306 c 0,1.38071 -1.11928,2.5 -2.5,2.5 -1.38071,0 -2.5,-1.11929 -2.5,-2.5 0,-1.38072 1.11929,-2.5 2.5,-2.5 1.38072,0 2.5,1.11928 2.5,2.5 z"
         sodipodi:ry="2.5"
         sodipodi:rx="2.5"
         sodipodi:cy="173.02306"
         sodipodi:cx="443.21429"
         id="path5223-70"
         style="fill:#0000ff;fill-opacity:1;fill-rule:nonzero;stroke:none"
         sodipodi:type="arc" />
      <path
         transform="matrix(2.7749459,0,0,2.7749459,-1084.1814,81.518276)"
         d="m 445.71429,173.02306 c 0,1.38071 -1.11928,2.5 -2.5,2.5 -1.38071,0 -2.5,-1.11929 -2.5,-2.5 0,-1.38072 1.11929,-2.5 2.5,-2.5 1.38072,0 2.5,1.11928 2.5,2.5 z"
         sodipodi:ry="2.5"
         sodipodi:rx="2.5"
         sodipodi:cy="173.02306"
         sodipodi:cx="443.21429"
         id="path5223-13"
         style="fill:#0000ff;fill-opacity:1;fill-rule:nonzero;stroke:none"
         sodipodi:type="arc" />
      <path
         transform="matrix(2.7749459,0,0,2.7749459,-949.1814,37.232562)"
         d="m 445.71429,173.02306 c 0,1.38071 -1.11928,2.5 -2.5,2.5 -1.38071,0 -2.5,-1.11929 -2.5,-2.5 0,-1.38072 1.11929,-2.5 2.5,-2.5 1.38072,0 2.5,1.11928 2.5,2.5 z"
         sodipodi:ry="2.5"
         sodipodi:rx="2.5"
         sodipodi:cy="173.02306"
         sodipodi:cx="443.21429"
         id="path5223-46"
         style="fill:#0000ff;fill-opacity:1;fill-rule:nonzero;stroke:none"
         sodipodi:type="arc" />
      <path
         transform="matrix(2.7749459,0,0,2.7749459,-910.60997,6.5182762)"
         d="m 445.71429,173.02306 c 0,1.38071 -1.11928,2.5 -2.5,2.5 -1.38071,0 -2.5,-1.11929 -2.5,-2.5 0,-1.38072 1.11929,-2.5 2.5,-2.5 1.38072,0 2.5,1.11928 2.5,2.5 z"
         sodipodi:ry="2.5"
         sodipodi:rx="2.5"
         sodipodi:cy="173.02306"
         sodipodi:cx="443.21429"
         id="path5223-49"
         style="fill:#0000ff;fill-opacity:1;fill-rule:nonzero;stroke:none"
         sodipodi:type="arc" />
      <path
         transform="matrix(2.7749459,0,0,2.7749459,-869.89569,-9.1960096)"
         d="m 445.71429,173.02306 c 0,1.38071 -1.11928,2.5 -2.5,2.5 -1.38071,0 -2.5,-1.11929 -2.5,-2.5 0,-1.38072 1.11929,-2.5 2.5,-2.5 1.38072,0 2.5,1.11928 2.5,2.5 z"
         sodipodi:ry="2.5"
         sodipodi:rx="2.5"
         sodipodi:cy="173.02306"
         sodipodi:cx="443.21429"
         id="path5223-52"
         style="fill:#0000ff;fill-opacity:1;fill-rule:nonzero;stroke:none"
         sodipodi:type="arc" />
      <path
         transform="matrix(2.7749459,0,0,2.7749459,-862.03855,52.232562)"
         d="m 445.71429,173.02306 c 0,1.38071 -1.11928,2.5 -2.5,2.5 -1.38071,0 -2.5,-1.11929 -2.5,-2.5 0,-1.38072 1.11929,-2.5 2.5,-2.5 1.38072,0 2.5,1.11928 2.5,2.5 z"
         sodipodi:ry="2.5"
         sodipodi:rx="2.5"
         sodipodi:cy="173.02306"
         sodipodi:cx="443.21429"
         id="path5223-41"
         style="fill:#0000ff;fill-opacity:1;fill-rule:nonzero;stroke:none"
         sodipodi:type="arc" />
      <path
         transform="matrix(2.7749459,0,0,2.7749459,-832.75283,75.803991)"
         d="m 445.71429,173.02306 c 0,1.38071 -1.11928,2.5 -2.5,2.5 -1.38071,0 -2.5,-1.11929 -2.5,-2.5 0,-1.38072 1.11929,-2.5 2.5,-2.5 1.38072,0 2.5,1.11928 2.5,2.5 z"
         sodipodi:ry="2.5"
         sodipodi:rx="2.5"
         sodipodi:cy="173.02306"
         sodipodi:cx="443.21429"
         id="path5223-93"
         style="fill:#0000ff;fill-opacity:1;fill-rule:nonzero;stroke:none"
         sodipodi:type="arc" />
      <path
         transform="matrix(2.7749459,0,0,2.7749459,-826.32426,40.80399)"
         d="m 445.71429,173.02306 c 0,1.38071 -1.11928,2.5 -2.5,2.5 -1.38071,0 -2.5,-1.11929 -2.5,-2.5 0,-1.38072 1.11929,-2.5 2.5,-2.5 1.38072,0 2.5,1.11928 2.5,2.5 z"
         sodipodi:ry="2.5"
         sodipodi:rx="2.5"
         sodipodi:cy="173.02306"
         sodipodi:cx="443.21429"
         id="path5223-2"
         style="fill:#0000ff;fill-opacity:1;fill-rule:nonzero;stroke:none"
         sodipodi:type="arc" />
      <path
         transform="matrix(2.7749459,0,0,2.7749459,-897.03855,40.089705)"
         d="m 445.71429,173.02306 c 0,1.38071 -1.11928,2.5 -2.5,2.5 -1.38071,0 -2.5,-1.11929 -2.5,-2.5 0,-1.38072 1.11929,-2.5 2.5,-2.5 1.38072,0 2.5,1.11928 2.5,2.5 z"
         sodipodi:ry="2.5"
         sodipodi:rx="2.5"
         sodipodi:cy="173.02306"
         sodipodi:cx="443.21429"
         id="path5223-92"
         style="fill:#0000ff;fill-opacity:1;fill-rule:nonzero;stroke:none"
         sodipodi:type="arc" />
      <path
         transform="matrix(2.7749459,0,0,2.7749459,-964.89569,65.803991)"
         d="m 445.71429,173.02306 c 0,1.38071 -1.11928,2.5 -2.5,2.5 -1.38071,0 -2.5,-1.11929 -2.5,-2.5 0,-1.38072 1.11929,-2.5 2.5,-2.5 1.38072,0 2.5,1.11928 2.5,2.5 z"
         sodipodi:ry="2.5"
         sodipodi:rx="2.5"
         sodipodi:cy="173.02306"
         sodipodi:cx="443.21429"
         id="path5223-38"
         style="fill:#0000ff;fill-opacity:1;fill-rule:nonzero;stroke:none"
         sodipodi:type="arc" />
      <path
         transform="matrix(2.7749459,0,0,2.7749459,-1004.8957,82.232562)"
         d="m 445.71429,173.02306 c 0,1.38071 -1.11928,2.5 -2.5,2.5 -1.38071,0 -2.5,-1.11929 -2.5,-2.5 0,-1.38072 1.11929,-2.5 2.5,-2.5 1.38072,0 2.5,1.11928 2.5,2.5 z"
         sodipodi:ry="2.5"
         sodipodi:rx="2.5"
         sodipodi:cy="173.02306"
         sodipodi:cx="443.21429"
         id="path5223-385"
         style="fill:#0000ff;fill-opacity:1;fill-rule:nonzero;stroke:none"
         sodipodi:type="arc" />
      <path
         transform="matrix(2.7749459,0,0,2.7749459,-900.60997,77.232562)"
         d="m 445.71429,173.02306 c 0,1.38071 -1.11928,2.5 -2.5,2.5 -1.38071,0 -2.5,-1.11929 -2.5,-2.5 0,-1.38072 1.11929,-2.5 2.5,-2.5 1.38072,0 2.5,1.11928 2.5,2.5 z"
         sodipodi:ry="2.5"
         sodipodi:rx="2.5"
         sodipodi:cy="173.02306"
         sodipodi:cx="443.21429"
         id="path5223-83"
         style="fill:#0000ff;fill-opacity:1;fill-rule:nonzero;stroke:none"
         sodipodi:type="arc" />
      <path
         transform="matrix(2.7749459,0,0,2.7749459,-865.60997,82.946848)"
         d="m 445.71429,173.02306 c 0,1.38071 -1.11928,2.5 -2.5,2.5 -1.38071,0 -2.5,-1.11929 -2.5,-2.5 0,-1.38072 1.11929,-2.5 2.5,-2.5 1.38072,0 2.5,1.11928 2.5,2.5 z"
         sodipodi:ry="2.5"
         sodipodi:rx="2.5"
         sodipodi:cy="173.02306"
         sodipodi:cx="443.21429"
         id="path5223-830"
         style="fill:#0000ff;fill-opacity:1;fill-rule:nonzero;stroke:none"
         sodipodi:type="arc" />
      <path
         transform="matrix(2.7749459,0,0,2.7749459,-931.32426,68.661133)"
         d="m 445.71429,173.02306 c 0,1.38071 -1.11928,2.5 -2.5,2.5 -1.38071,0 -2.5,-1.11929 -2.5,-2.5 0,-1.38072 1.11929,-2.5 2.5,-2.5 1.38072,0 2.5,1.11928 2.5,2.5 z"
         sodipodi:ry="2.5"
         sodipodi:rx="2.5"
         sodipodi:cy="173.02306"
         sodipodi:cx="443.21429"
         id="path5223-66"
         style="fill:#0000ff;fill-opacity:1;fill-rule:nonzero;stroke:none"
         sodipodi:type="arc" />
    </g>
    <rect
       style="fill:#fff1e8;fill-opacity:1;fill-rule:nonzero;stroke:#000000;stroke-width:2;stroke-linecap:square;stroke-miterlimit:4;stroke-opacity:1;stroke-dasharray:none;stroke-dashoffset:0"
       id="rect2985-7"
       width="307.08636"
       height="180"
       x="626.53967"
       y="380.93362" />
    <flowRoot
       xml:space="preserve"
       id="flowRoot2991-9"
       style="font-size:40px;font-style:normal;font-weight:normal;text-align:center;line-height:125%;letter-spacing:0px;word-spacing:0px;text-anchor:middle;fill:#000000;fill-opacity:1;stroke:none;font-family:Sans"
       transform="translate(478.21819,268.54383)"><flowRegion
         id="flowRegion2993-5"><rect
           id="rect2995-8"
           width="194.70689"
           height="77.024132"
           x="200.01021"
           y="329.93195"
           style="text-align:center;text-anchor:middle" /></flowRegion><flowPara
         id="flowPara2997-2">Magnet</flowPara></flowRoot>    <rect
       style="fill:url(#pattern6994);stroke:none"
       width="37.205353"
       height="13.288855"
       x="795.20026"
       y="476.23273"
       id="rect6162" />
  </g>
</svg>
