<?xml version="1.0" encoding="UTF-8" standalone="no"?>
<!-- Created with Inkscape (http://www.inkscape.org/) -->

<svg
   xmlns:dc="http://purl.org/dc/elements/1.1/"
   xmlns:cc="http://creativecommons.org/ns#"
   xmlns:rdf="http://www.w3.org/1999/02/22-rdf-syntax-ns#"
   xmlns:svg="http://www.w3.org/2000/svg"
   xmlns="http://www.w3.org/2000/svg"
   xmlns:sodipodi="http://sodipodi.sourceforge.net/DTD/sodipodi-0.dtd"
   xmlns:inkscape="http://www.inkscape.org/namespaces/inkscape"
   width="1052.3622"
   height="744.09448"
   id="svg2"
   version="1.1"
   inkscape:version="0.48.5 r10040"
   sodipodi:docname="notInfWork_H-M.pdf">
  <defs
     id="defs4">
    <marker
       inkscape:stockid="Arrow2Mend"
       orient="auto"
       refY="0.0"
       refX="0.0"
       id="Arrow2Mend"
       style="overflow:visible;">
      <path
         id="path3786"
         style="fill-rule:evenodd;stroke-width:0.62500000;stroke-linejoin:round;"
         d="M 8.7185878,4.0337352 L -2.2072895,0.016013256 L 8.7185884,-4.0017078 C 6.9730900,-1.6296469 6.9831476,1.6157441 8.7185878,4.0337352 z "
         transform="scale(0.6) rotate(180) translate(0,0)" />
    </marker>
    <marker
       inkscape:stockid="Arrow2Mend"
       orient="auto"
       refY="0"
       refX="0"
       id="Arrow2Mend-8"
       style="overflow:visible">
      <path
         inkscape:connector-curvature="0"
         id="path3786-3"
         style="fill-rule:evenodd;stroke-width:0.625;stroke-linejoin:round"
         d="M 8.7185878,4.0337352 -2.2072895,0.01601326 8.7185884,-4.0017078 c -1.7454984,2.3720609 -1.7354408,5.6174519 -6e-7,8.035443 z"
         transform="scale(-0.6,-0.6)" />
    </marker>
    <marker
       inkscape:stockid="Arrow2Mend"
       orient="auto"
       refY="0"
       refX="0"
       id="marker6377"
       style="overflow:visible">
      <path
         inkscape:connector-curvature="0"
         id="path6379"
         style="fill-rule:evenodd;stroke-width:0.625;stroke-linejoin:round"
         d="M 8.7185878,4.0337352 -2.2072895,0.01601326 8.7185884,-4.0017078 c -1.7454984,2.3720609 -1.7354408,5.6174519 -6e-7,8.035443 z"
         transform="scale(-0.6,-0.6)" />
    </marker>
    <marker
       inkscape:stockid="Arrow2Mend"
       orient="auto"
       refY="0"
       refX="0"
       id="marker6381"
       style="overflow:visible">
      <path
         inkscape:connector-curvature="0"
         id="path6383"
         style="fill-rule:evenodd;stroke-width:0.625;stroke-linejoin:round"
         d="M 8.7185878,4.0337352 -2.2072895,0.01601326 8.7185884,-4.0017078 c -1.7454984,2.3720609 -1.7354408,5.6174519 -6e-7,8.035443 z"
         transform="scale(-0.6,-0.6)" />
    </marker>
    <marker
       inkscape:stockid="Arrow2Mend"
       orient="auto"
       refY="0"
       refX="0"
       id="marker6385"
       style="overflow:visible">
      <path
         inkscape:connector-curvature="0"
         id="path6387"
         style="fill-rule:evenodd;stroke-width:0.625;stroke-linejoin:round"
         d="M 8.7185878,4.0337352 -2.2072895,0.01601326 8.7185884,-4.0017078 c -1.7454984,2.3720609 -1.7354408,5.6174519 -6e-7,8.035443 z"
         transform="scale(-0.6,-0.6)" />
    </marker>
  </defs>
  <sodipodi:namedview
     id="base"
     pagecolor="#ffffff"
     bordercolor="#666666"
     borderopacity="1.0"
     inkscape:pageopacity="0.0"
     inkscape:pageshadow="2"
     inkscape:zoom="0.7"
     inkscape:cx="696.1777"
     inkscape:cy="419.2286"
     inkscape:document-units="px"
     inkscape:current-layer="layer1"
     showgrid="false"
     inkscape:window-width="1280"
     inkscape:window-height="744"
     inkscape:window-x="0"
     inkscape:window-y="0"
     inkscape:window-maximized="1" />
  <metadata
     id="metadata7">
    <rdf:RDF>
      <cc:Work
         rdf:about="">
        <dc:format>image/svg+xml</dc:format>
        <dc:type
           rdf:resource="http://purl.org/dc/dcmitype/StillImage" />
        <dc:title></dc:title>
      </cc:Work>
    </rdf:RDF>
  </metadata>
  <g
     inkscape:label="Layer 1"
     inkscape:groupmode="layer"
     id="layer1"
     transform="translate(0,-308.2677)">
    <path
       style="fill:none;stroke:#000000;stroke-width:3;stroke-linecap:butt;stroke-linejoin:miter;stroke-miterlimit:4;stroke-opacity:1;stroke-dasharray:none;marker-end:url(#Arrow2Mend)"
       d="m 293.74551,876.80523 467.702,0"
       id="path2985"
       inkscape:connector-curvature="0" />
    <path
       inkscape:connector-curvature="0"
       id="path4212"
       d="m 318.75017,903.77258 0,-467.70204"
       style="fill:none;stroke:#000000;stroke-width:3;stroke-linecap:butt;stroke-linejoin:miter;stroke-miterlimit:4;stroke-opacity:1;stroke-dasharray:none;marker-end:url(#Arrow2Mend)" />
    <flowRoot
       xml:space="preserve"
       id="flowRoot4252"
       style="font-size:20px;font-style:normal;font-weight:normal;text-align:center;line-height:125%;letter-spacing:0px;word-spacing:0px;text-anchor:middle;fill:#000000;fill-opacity:1;stroke:none;font-family:Sans"
       transform="translate(-126.52206,284.92389)"><flowRegion
         id="flowRegion4254"><rect
           id="rect4256"
           width="94.954338"
           height="68.690376"
           x="838.42664"
           y="616.81525"
           style="font-size:20px;text-align:center;text-anchor:middle" /></flowRegion><flowPara
         id="flowPara4258">$M$</flowPara></flowRoot>    <flowRoot
       transform="translate(-603.29155,-197.03273)"
       xml:space="preserve"
       id="flowRoot4252-2"
       style="font-size:20px;font-style:normal;font-weight:normal;text-align:center;line-height:125%;letter-spacing:0px;word-spacing:0px;text-anchor:middle;fill:#000000;fill-opacity:1;stroke:none;font-family:Sans"><flowRegion
         id="flowRegion4254-5"><rect
           id="rect4256-4"
           width="94.954338"
           height="68.690376"
           x="838.42664"
           y="616.81525"
           style="font-size:20px;text-align:center;text-anchor:middle" /></flowRegion><flowPara
         id="flowPara4258-9">$H$</flowPara></flowRoot>    <path
       sodipodi:type="arc"
       style="fill:#000000;fill-opacity:1;fill-rule:nonzero;stroke:none"
       id="path4289"
       sodipodi:cx="486.60715"
       sodipodi:cy="278.20163"
       sodipodi:rx="6.25"
       sodipodi:ry="6.25"
       d="m 492.85715,278.20163 a 6.25,6.25 0 1 1 -12.5,0 6.25,6.25 0 1 1 12.5,0 z"
       transform="translate(-73.625028,290.63817)" />
    <path
       sodipodi:type="arc"
       style="fill:#000000;fill-opacity:1;fill-rule:nonzero;stroke:none"
       id="path4289-9"
       sodipodi:cx="486.60715"
       sodipodi:cy="278.20163"
       sodipodi:rx="6.25"
       sodipodi:ry="6.25"
       d="m 492.85715,278.20163 a 6.25,6.25 0 1 1 -12.5,0 6.25,6.25 0 1 1 12.5,0 z"
       transform="translate(158.33925,406.53104)" />
    <path
       style="fill:none;stroke:#000000;stroke-width:0;stroke-linecap:butt;stroke-linejoin:miter;stroke-miterlimit:4;stroke-opacity:1;stroke-dasharray:none;marker-end:url(#Arrow2Mend)"
       d="m 414.21918,571.82538 c -0.38421,1.92107 -0.98491,6.01043 -2.0203,8.08122 -0.54294,1.08588 -1.54207,1.91457 -2.02031,3.03046 -1.25515,2.92868 -1.01015,4.17438 -1.01015,7.07107 0,1.01015 0.16607,2.03405 0,3.03045 -0.17505,1.05031 -0.8351,1.98016 -1.01015,3.03046 -0.27678,1.66068 0,3.36718 0,5.05077 0,1.53205 -0.22605,6.72496 0,8.08122 0.44077,2.64461 2.06541,4.65845 3.03046,7.07106 0.58206,1.45516 1.00502,3.69706 2.0203,5.05077 0.57143,0.7619 1.44888,1.2584 2.02031,2.0203 0.25973,0.34632 1.76056,3.6943 2.0203,4.04061 0.57143,0.76191 1.34687,1.34687 2.02031,2.02031 0.67343,0.67343 1.27662,1.42535 2.0203,2.0203 0.94802,0.75841 2.17199,1.16184 3.03046,2.02031 5.25034,5.25034 -0.95758,1.0522 4.04062,5.05076 0.94801,0.75841 2.08244,1.26189 3.03045,2.0203 1.48737,1.1899 2.55324,2.85072 4.04061,4.04061 0.94801,0.75842 2.27204,1.07229 3.03045,2.02031 0.66518,0.83146 0.6147,2.04182 1.01015,3.03046 0.72051,1.80127 1.29979,2.23934 2.02031,4.04061 0.39546,0.98863 0.67344,2.0203 1.01015,3.03046 0.33672,1.01015 0.83511,1.98015 1.01016,3.03045 0.16606,0.99641 -0.16607,2.03405 0,3.03046 0.17504,1.05031 0.71762,2.00663 1.01015,3.03046 0.38139,1.3349 0.67343,2.69374 1.01015,4.04061 3.1579,12.6316 -0.87805,-3.07318 2.02031,7.07107 0.3814,1.3349 0.57112,2.72353 1.01015,4.04061 0.57341,1.72022 1.34687,3.36717 2.0203,5.05076 1.54924,3.87308 2.92902,7.03584 4.04061,11.11168 0.45176,1.65643 0.42341,3.4372 1.01016,5.05076 0.77192,2.12278 2.2196,3.9527 3.03045,6.06091 2.39554,3.6673 1.6071,8.20763 3.03046,12.12184 0.77192,2.12277 2.1617,3.97589 3.03046,6.06091 0.81907,1.96577 1.00055,4.19136 2.02031,6.06092 1.03242,1.89278 2.77247,3.30709 4.04061,5.05076 1.42814,1.96369 2.69374,4.04061 4.04061,6.06091 5.09718,7.64578 2.32368,4.34399 8.08122,10.10153 1.34687,1.34687 2.5168,2.89775 4.04061,4.04061 1.20467,0.90351 2.69374,1.34687 4.04061,2.0203 1.34687,0.67344 2.61204,1.54412 4.04061,2.02031 0.37042,0.12347 5.8876,0 6.06091,0 2.10403,0 2.73575,0 5.05076,0 0.67344,0 1.35604,0.11071 2.02031,0 12.0877,-2.01462 0.45724,0.27645 5.05076,-2.02031 0.95238,-0.47619 2.07808,-0.53396 3.03046,-1.01015 4.14554,-2.07277 1.91887,-1.5351 5.05076,-4.04061 0.94802,-0.75841 2.08244,-1.26189 3.03045,-2.0203 0.74369,-0.59495 1.34687,-1.34687 2.02031,-2.02031 0.67344,-0.67343 1.42535,-1.27662 2.0203,-2.0203 0.75842,-0.94802 1.16184,-2.172 2.02031,-3.03046 0.53239,-0.5324 1.56855,-0.40781 2.0203,-1.01015 1.18348,-1.57796 0.57978,-3.61023 2.02031,-5.05077 0.53239,-0.53239 1.4879,-0.47775 2.02031,-1.01015 0.24509,-0.24509 2.81199,-5.51475 3.03045,-6.06091 0.82137,-2.05343 0.83581,-3.27403 2.0203,-5.05077 1.23221,-1.84831 1.28789,-0.10078 2.02031,-3.03045 0.16333,-0.65333 -0.21295,-1.38143 0,-2.02031 0.18224,-0.54673 2.58803,-2.36681 3.03046,-3.03046 0.41764,-0.62647 0.40781,-1.56855 1.01015,-2.0203 0.85183,-0.63888 2.0203,-0.67344 3.03046,-1.01015 1.01015,-0.33672 2.0203,-0.67344 3.03045,-1.01016 1.01016,-0.33671 1.98635,-0.80133 3.03046,-1.01015 1.32072,-0.26414 2.69374,0 4.04061,0 2.69374,0 5.38748,0 8.08122,0 2.35702,0 4.71405,0 7.07107,0 1.01015,0 2.05047,-0.245 3.03046,0 0.46197,0.11549 0.54818,0.89466 1.01015,1.01015 1.60819,0.6125 3.41744,-0.40833 5.05076,0 5.24529,1.31132 -1.07838,1.01016 4.04061,1.01016 0.82702,0 4.39627,-0.21817 5.05077,0 0.71428,0.23809 1.30602,0.77205 2.0203,1.01015 0.45002,0.15 4.82475,0.0753 5.05076,0 0.89181,-0.29727 5.26158,-2.49757 6.06092,-3.03046 0.39621,-0.26414 0.61394,-0.74601 1.01015,-1.01015 0.62647,-0.41765 1.32123,-0.73053 2.02031,-1.01016 0.98863,-0.39545 2.27753,-0.25722 3.03045,-1.01015 0.47619,-0.47619 -0.37355,-1.45997 0,-2.0203 0.41765,-0.62647 1.39384,-0.59251 2.02031,-1.01016 0.79243,-0.52828 1.16847,-1.59438 2.0203,-2.0203 0.30117,-0.15058 0.70899,0.15058 1.01016,0 0.42591,-0.21296 0.67343,-0.67344 1.01015,-1.01015 0.33672,-0.33672 0.85957,-0.5584 1.01015,-1.01016 0.21296,-0.63887 -0.30117,-1.41796 0,-2.0203 0.15059,-0.30117 0.70899,0.15058 1.01015,0 0.42592,-0.21296 0.74601,-0.61394 1.01016,-1.01015 0.41764,-0.62647 0.47775,-1.48791 1.01015,-2.02031 0.0647,-0.0647 3.85245,-1.89486 4.04061,-2.0203 0.39621,-0.26415 0.58423,-0.7972 1.01015,-1.01016 0.30117,-0.15058 0.69072,0.10648 1.01016,0 0.71428,-0.23809 1.30601,-0.77205 2.0203,-1.01015 0.31944,-0.10648 0.67344,0 1.01015,0 0.67344,-0.33672 1.30602,-0.77206 2.02031,-1.01015 0.31944,-0.10648 0.69071,0.10648 1.01015,0 0.4916,-0.80646 -2.43946,0.59645 1.2627,-1.89404"
       id="path4311"
       inkscape:connector-curvature="0"
       sodipodi:nodetypes="csssssssssccssssssssscssssssssscsssssssssssssssssscsssssssssccssssscsssccsssssscccccscsccsscscc" />
    <flowRoot
       xml:space="preserve"
       id="flowRoot6148"
       style="font-size:20px;font-style:normal;font-weight:normal;line-height:125%;letter-spacing:0px;word-spacing:0px;fill:#000000;fill-opacity:1;stroke:none;font-family:Sans"
       transform="translate(-51.339318,318.92389)"><flowRegion
         id="flowRegion6150"><rect
           id="rect6152"
           width="95"
           height="62"
           x="446"
           y="211.09448"
           style="font-size:20px" /></flowRegion><flowPara
         id="flowPara6154">1</flowPara></flowRoot>    <flowRoot
       xml:space="preserve"
       id="flowRoot6148-4"
       style="font-size:20px;font-style:normal;font-weight:normal;line-height:125%;letter-spacing:0px;word-spacing:0px;fill:#000000;fill-opacity:1;stroke:none;font-family:Sans"
       transform="translate(220.58452,455.63474)"><flowRegion
         id="flowRegion6150-8"><rect
           id="rect6152-7"
           width="95"
           height="62"
           x="446"
           y="211.09448"
           style="font-size:20px" /></flowRegion><flowPara
         id="flowPara6154-7">2</flowPara></flowRoot>    <path
       style="fill:#e6e6e6;fill-opacity:1;fill-rule:nonzero;stroke:none"
       d="m 585.15099,391.51538 c -0.25039,-0.25039 -1.99048,-0.54965 -6.13431,-1.055 -2.07979,-0.25364 -7.62387,-2.05135 -11.96428,-3.87952 -1.66965,-0.70325 -4,-1.52609 -5.17858,-1.82853 -1.17857,-0.30245 -2.70535,-0.91555 -3.39285,-1.36245 -0.6875,-0.4469 -2.05357,-1.0577 -3.03572,-1.35733 -3.14629,-0.95988 -5.88828,-1.7489 -7.88678,-2.26944 -1.07065,-0.27887 -2.70734,-0.88759 -3.63707,-1.35272 -2.46937,-1.23536 -4.15311,-1.44391 -11.69043,-1.44799 -7.22556,-0.004 -8.75802,0.23614 -10.6339,1.66573 -0.6335,0.48279 -2.03575,1.32011 -3.1161,1.86071 -1.08036,0.54061 -2.28572,1.27615 -2.67857,1.63453 -1.65711,1.51168 -8.65904,6.2573 -10.00481,6.78086 -3.54378,1.37866 -9.88182,1.37051 -19.10234,-0.0246 -3.77472,-0.57113 -12.84555,-0.82138 -13.73758,-0.37901 -1.65441,0.82045 -9.64112,1.07967 -13.94099,0.45247 -4.35906,-0.63582 -6.69465,-1.34217 -10.10044,-3.05467 -1.82309,-0.91668 -4.15345,-1.98241 -5.17857,-2.36829 -2.97699,-1.12059 -8.10288,-4.73068 -9.74136,-6.86071 -0.79691,-1.03598 -2.10258,-2.32262 -2.90147,-2.85917 -0.94607,-0.63541 -1.98336,-1.88068 -2.97494,-3.57143 -0.83733,-1.42773 -2.00408,-3.39945 -2.5928,-4.38159 -1.05659,-1.76269 -3.06695,-6.88323 -4.06629,-10.35714 -0.40385,-1.40388 -0.47273,-3.35125 -0.32212,-9.10714 0.35968,-13.74556 0.7115,-18.99788 1.37252,-20.49005 0.33715,-0.76106 0.61262,-2.26726 0.61262,-3.34965 0,-1.21615 0.35083,-2.93734 0.91928,-4.50995 0.50561,-1.39877 1.80053,-5.59233 2.8776,-9.31904 l 1.95832,-6.77583 -0.181,-6.7956 c -0.2406,-9.0335 -0.46563,-11.05092 -1.3188,-11.82303 -0.40157,-0.36342 -0.68398,-1.08939 -0.68398,-1.75828 0,-0.70552 -0.28665,-1.39834 -0.75288,-1.81965 -0.41409,-0.37419 -1.12232,-1.40357 -1.57384,-2.28749 -0.45153,-0.88393 -1.32925,-2.08929 -1.9505,-2.67858 -0.62125,-0.58928 -1.36371,-1.56413 -1.64991,-2.16632 -0.2862,-0.60219 -1.11878,-1.4752 -1.85018,-1.94002 -0.8021,-0.50975 -1.66839,-1.52057 -2.18297,-2.54717 l -0.85314,-1.70203 1.12905,-0.95004 c 1.87887,-1.58097 2.6876,-3.82033 2.18479,-6.0497 l -0.9065,-2.31957 2.01555,-0.81913 c 0.71569,0.0897 6.78176,-1.00851 8.89053,-1.59102 3.35533,-0.86817 -2.05535,0.38985 12.10185,0.62072 4.48736,0 6.52068,-0.14604 7.94643,-0.57073 1.0538,-0.31389 3.28208,-0.97115 4.95172,-1.46057 3.10221,-0.90935 5.00996,-1.65546 10.35715,-4.05067 1.66964,-0.74789 4.48214,-1.95209 6.25,-2.67599 1.76785,-0.72389 3.74206,-1.54057 4.38711,-1.81482 0.64506,-0.27426 1.32252,-0.49865 1.50546,-0.49865 0.18294,0 1.07705,-0.4721 1.9869,-1.04911 3.34854,-2.12358 4.76146,-2.34687 14.64018,-2.31367 6.41107,0.0215 9.29707,0.16178 10.17857,0.49458 1.25966,0.47558 2.52864,0.70221 7.83749,1.39973 5.87228,0.77154 7.6638,1.2314 10.35714,2.65851 2.80712,1.4874 5.35715,3.60672 5.35715,4.45231 0,0.27356 0.301,0.92398 0.6689,1.44537 0.3679,0.5214 0.76159,1.51049 0.87487,2.19799 0.84927,5.1544 1.08783,5.91756 2.26101,7.23318 0.65737,0.73717 1.19522,1.50056 1.19522,1.69642 0,0.19587 0.33625,0.35612 0.74724,0.35612 0.41098,0 1.1329,0.30336 1.60427,0.67414 1.4219,1.11847 7.38423,3.5742 10.00858,4.12227 1.35373,0.28272 3.50598,0.76766 4.78276,1.07764 1.27679,0.30999 3.25128,0.72672 4.38776,0.92606 2.72812,0.47854 7.49178,1.99624 9.71939,3.0966 2.60219,1.2854 6.42626,2.577 9.28571,3.13631 1.375,0.26895 3.46429,0.81434 4.64286,1.21197 1.17857,0.39763 3.83035,1.06253 5.89285,1.47755 3.92591,0.78999 5.5817,1.24553 9.0692,2.49508 1.1577,0.4148 3.00592,0.92031 4.10715,1.12337 1.95301,0.3601 5.36758,2.02535 7.90722,3.85624 0.69417,0.50045 6.98997,6.69563 13.99066,13.76705 11.36934,11.48423 13.0345,13.31479 15.59392,17.14286 1.57597,2.35714 3.58195,5.20386 4.45774,6.32603 1.06844,1.36903 1.91357,3.01409 2.5687,5 0.537,1.62783 1.33297,3.6829 1.76883,4.56683 0.43587,0.88393 0.90285,2.32353 1.03774,3.19911 0.1349,0.87558 0.56476,2.31423 0.95524,3.19698 0.39049,0.88276 0.9589,2.81015 1.26315,4.2831 0.30425,1.47295 0.88526,3.32896 1.29114,4.12445 1.20002,2.35197 1.67736,5.10332 1.69088,9.7461 0.0103,3.52813 -0.12501,4.73353 -0.70139,6.25 -0.39275,1.03335 -0.71418,2.14171 -0.71428,2.463 -10e-5,0.3213 -0.24026,1.04451 -0.5337,1.60715 -0.29343,0.56263 -0.53549,1.34439 -0.53791,1.73725 -0.004,0.61301 -0.25598,0.71935 -1.77868,0.75 -3.60192,0.0725 -6.39475,3.31241 -5.96719,6.92246 0.24324,2.05379 1.17986,1.76758 -9.39699,2.87153 -8.44617,0.88157 -8.72102,0.93793 -7.57808,1.55397 0.93593,0.50447 0.69698,0.93775 -0.51716,0.93775 -0.45833,0 -0.83333,0.16072 -0.83333,0.35715 0,0.19643 -0.36161,0.36007 -0.80357,0.36364 -0.44196,0.004 -1.51079,0.48572 -2.37517,1.07143 -0.86438,0.58571 -2.02397,1.06493 -2.57686,1.06493 -0.60768,0 -1.48788,0.42374 -2.22555,1.07143 -0.67116,0.58928 -1.48032,1.07142 -1.79814,1.07142 -0.31782,0 -0.88929,0.31144 -1.26993,0.69208 -0.38065,0.38065 -1.5953,0.85905 -2.69924,1.06313 -1.10393,0.20407 -2.18636,0.4818 -2.4054,0.61717 -0.38101,0.23547 -1.09865,0.41406 -5.09614,1.2682 -2.12984,0.45509 -13.48492,0.79117 -13.86569,0.4104 l 0,0 z"
       id="path4277"
       inkscape:connector-curvature="0"
       transform="translate(0,308.2677)"
       sodipodi:nodetypes="cssssssscssssssssssssssssssscssssssssscssccccsssssssssssssssssssssssssscsssssscssssssscsssssscssssssssccc" />
    <path
       style="fill:none;stroke:#000000;stroke-width:3;stroke-linecap:butt;stroke-linejoin:miter;stroke-miterlimit:4;stroke-opacity:1;stroke-dasharray:none;marker-end:url(#marker6385)"
       d="m 413.57514,264.59584 c 0.38971,1.95802 1.10763,3.66566 2.13914,5.21293 0.29532,0.44298 0.33783,1.05211 0.71429,1.42857 0.37646,0.37646 1.00265,0.39485 1.42857,0.71429 2.4994,1.87455 0.57846,0.77127 2.14286,2.85714 0.60609,0.80812 1.58252,1.30236 2.14285,2.14286 0.59065,0.88596 0.7897,2.00531 1.42858,2.85714 0.40406,0.53875 1.1274,0.82623 1.42857,1.42857 0.21296,0.42592 -0.1155,0.9666 0,1.42857 -0.43052,1.29282 1.1571,1.32845 1.42857,2.14286 0.30117,0.90351 -0.18678,1.92326 0,2.85714 0.14766,0.73831 0.56662,1.40456 0.71428,2.14286 0.0934,0.46694 0,0.95238 0,1.42857 0,1.66667 0,3.33334 0,5 0,1.90476 0.23626,3.82423 0,5.71429 -0.0934,0.74711 -0.50744,1.4189 -0.71428,2.14285 -2.23297,8.9319 0.62088,-2.17306 -1.42857,5 -0.26969,0.94393 -0.4446,1.91323 -0.71429,2.85715 -0.41369,1.44791 -0.95238,2.85714 -1.42857,4.28571 -0.23809,0.71429 -0.47619,1.42857 -0.71429,2.14286 -0.23809,0.71428 -0.62089,1.39575 -0.71428,2.14286 -0.14766,1.18128 0,2.38095 0,3.57142 -0.47619,1.42858 -1.1996,2.79738 -1.42857,4.28572 -0.25397,1.65079 0.1814,6.57596 0,8.57143 -0.13112,1.44233 -0.58317,2.84338 -0.71429,4.28571 -0.10778,1.18559 0,2.38095 0,3.57143 0,1.42857 0,2.85714 0,4.28571 0,1.19048 -0.10778,2.38585 0,3.57143 0.43173,4.74906 0.61318,3.65052 2.14286,7.85715 0.51461,1.41518 0.81699,2.90965 1.42857,4.28571 0.34866,0.78448 1.00265,1.3975 1.42857,2.14286 3.06475,6.1295 -0.17167,-0.048 2.85714,5 0.27392,0.45652 0.39485,1.00265 0.71429,1.42857 2.12056,2.82741 0.75994,0.0457 3.57143,2.85714 3.71255,3.71255 -0.67712,0.74402 2.85714,3.57143 1.3407,1.07256 2.85714,1.90476 4.28572,2.85714 1.25774,0.8385 2.19867,1.59376 3.57142,2.14286 0.69908,0.27963 1.44379,0.43466 2.14286,0.71429 2.46306,0.98522 4.6798,2.5862 7.14286,3.57142 7.19019,2.87608 -1.51657,-0.55771 3.57143,0.71429 0.5165,0.12913 0.90651,0.60987 1.42857,0.71429 1.16736,0.23347 2.4165,-0.28874 3.57143,0 0.5165,0.12912 0.91207,0.58516 1.42857,0.71428 0.56187,0.14047 3.54291,0 4.28571,0 0.47619,0 0.95238,0 1.42857,0 0.2381,0 0.48841,0.0753 0.71429,0 0.50508,-0.16836 0.91207,-0.58516 1.42857,-0.71428 0.97296,-0.24324 3.42158,0.28804 4.28572,0 0.31943,-0.10648 0.39484,-0.60781 0.71428,-0.71429 0.45176,-0.15058 0.95238,0 1.42857,0 0.71429,0 1.42857,0 2.14286,0 1.19048,0 2.38095,0 3.57143,0 0.47619,0 0.9666,-0.11549 1.42857,0 0.5165,0.12913 0.90651,0.60987 1.42857,0.71429 1.16736,0.23347 2.4165,-0.28874 3.57143,0 0.5165,0.12912 0.91207,0.58516 1.42857,0.71428 0.48339,0.12085 4.54035,0 5,0 0.47619,0 0.9666,-0.11549 1.42857,0 0.5165,0.12913 0.91207,0.58516 1.42857,0.71429 0.46198,0.11549 0.95239,0 1.42858,0 0.71428,0 1.44244,0.14008 2.14285,0 0.52206,-0.10441 0.90652,-0.60988 1.42857,-0.71429 0.70042,-0.14008 1.43829,0.11743 2.14286,0 1.18103,-0.19684 3.92732,-1.42774 5,-2.14286 0.28017,-0.18677 0.43412,-0.5275 0.71429,-0.71428 0.44298,-0.29532 0.98559,-0.41897 1.42857,-0.71429 0.28016,-0.18677 0.43412,-0.52751 0.71428,-0.71428 0.44299,-0.29532 0.98559,-0.41897 1.42858,-0.71429 0.77456,-0.51637 0.65401,-0.9122 1.42857,-1.42857 0.44298,-0.29532 0.95238,-0.47619 1.42857,-0.71429 0.47619,-0.47619 0.88982,-1.02451 1.42857,-1.42857 1.10339,-0.82754 3.09626,-1.34988 4.28571,-2.14285 0.28017,-0.18678 0.43412,-0.52751 0.71429,-0.71429 3.60843,-2.40562 0.0166,-0.006 2.14286,-0.71429 0.50507,-0.16835 0.92349,-0.54592 1.42857,-0.71428 0.47214,-0.15738 4.23369,0 5,0 1.42857,0 2.85714,0 4.28571,0 0.71429,0 1.44245,-0.14008 2.14286,0 0.7383,0.14766 1.40455,0.56662 2.14286,0.71428 0.46694,0.0934 0.9666,-0.11549 1.42857,0 1.033,0.25826 1.8685,1.03312 2.85714,1.42858 0.69907,0.27962 1.4189,0.50744 2.14286,0.71428 0.94392,0.26969 1.91322,0.4446 2.85714,0.71429 0.72395,0.20684 1.4189,0.50744 2.14286,0.71428 1.068,0.30515 3.85826,0.8577 5,1.42857 0.76783,0.38392 1.37502,1.04466 2.14286,1.42858 1.37577,0.68788 3.62685,0.97085 5,1.42857 0.50507,0.16836 0.93425,0.51656 1.42857,0.71428 0.69907,0.27963 1.44378,0.43466 2.14285,0.71429 0.98864,0.39545 1.84699,1.09185 2.85715,1.42857 0.22587,0.0753 0.48841,-0.0753 0.71428,0 0.50508,0.16836 0.9235,0.54593 1.42857,0.71429 0.22588,0.0753 0.48841,-0.0753 0.71429,0 0.50508,0.16835 0.92349,0.54592 1.42857,0.71428 0.22588,0.0753 0.48841,-0.0753 0.71429,0 0.50507,0.16836 0.90651,0.60988 1.42857,0.71429 0.70041,0.14008 1.42857,0 2.14286,0 0.23809,0 0.48329,-0.0577 0.71428,0 0.73044,0.18261 1.41242,0.53167 2.14286,0.71428 0.69296,0.17324 1.4499,-0.17324 2.14286,0 0.5165,0.12913 0.91207,0.58516 1.42857,0.71429 0.46197,0.11549 0.95238,0 1.42857,0 1.42857,0 2.85714,0 4.28571,0 1.42857,0 2.85715,0 4.28572,0 0.47619,0 0.95238,0 1.42857,0 0.23809,0 0.48841,0.0753 0.71428,0 0.50508,-0.16836 0.95238,-0.47619 1.42858,-0.71429 0.71428,0 1.44244,0.14009 2.14285,0 0.52206,-0.10441 0.91207,-0.58516 1.42857,-0.71428 0.46198,-0.1155 0.9666,0.11549 1.42858,0 0.5165,-0.12913 0.91207,-0.58516 1.42857,-0.71429 5.08799,-1.272 -3.61877,2.16179 3.57143,-0.71428 1.21917,0.25272 1.37502,-1.04466 2.14285,-1.42858 0.21296,-0.10648 0.47619,0 0.71429,0 0.47619,-0.23809 0.98559,-0.41896 1.42857,-0.71428 0.56033,-0.37356 0.82623,-1.1274 1.42857,-1.42857 0.42592,-0.21296 0.97682,0.15058 1.42857,0 0.50508,-0.16836 0.95238,-0.47619 1.42857,-0.71429 0.47619,-0.23809 0.98559,-0.41896 1.42858,-0.71428 0.28016,-0.18678 0.39484,-0.60781 0.71428,-0.71429 0.45175,-0.15058 0.97682,0.15058 1.42857,0 0.31944,-0.10648 0.41312,-0.5637 0.71429,-0.71429 0.42592,-0.21295 1.00265,0.21296 1.42857,0 0.30117,-0.15058 0.39485,-0.6078 0.71429,-0.71428 0.45175,-0.15059 0.96659,0.11549 1.42857,0 0.5165,-0.12913 0.92349,-0.54593 1.42857,-0.71429 0.45175,-0.15058 0.97682,0.15059 1.42857,0 0.50508,-0.16836 0.90651,-0.60987 1.42857,-0.71428 0.70042,-0.14009 1.42857,0 2.14286,0 0.47619,0 0.97682,0.15058 1.42857,0 0.31944,-0.10648 0.39485,-0.60781 0.71429,-0.71429 0.7596,-0.63672 0.23219,-0.4274 3.35849,-1.4719"
       id="path3889"
       inkscape:connector-curvature="0"
       transform="translate(0,308.2677)"
       sodipodi:nodetypes="cssssssscsscssccssssscsssssssscssssssssscccsscsccsssccccsccsssscssssscssscsssscccsscssscsccccccsscsscsssscccccscscsssccssccccsccsscc" />
    <path
       style="fill:none;stroke:#000000;stroke-width:3;stroke-linecap:butt;stroke-linejoin:miter;stroke-miterlimit:4;stroke-opacity:1;stroke-dasharray:none;marker-end:url(#marker6385)"
       d="m 647.0027,374.37865 c 0,-0.67343 -0.13207,-1.35994 0,-2.0203 0.0467,-0.23347 0.33672,-0.33672 0.50508,-0.50508 0.16836,-0.33672 0.43124,-0.641 0.50507,-1.01015 0.0991,-0.49527 -0.099,-1.01996 0,-1.51523 0.29647,-1.48232 0.71369,-0.53799 1.01016,-2.0203 0.0991,-0.49527 -0.0991,-1.01997 0,-1.51523 0.0738,-0.36915 0.36526,-0.66062 0.50507,-1.01016 0.19773,-0.49431 0.33672,-1.01015 0.50508,-1.51522 0.16836,-0.50508 0.41755,-0.99008 0.50508,-1.51523 0.083,-0.49821 0,-1.01016 0,-1.51523 0,-0.50508 0,-1.01015 0,-1.51523 0,-1.34687 0,-2.69374 0,-4.04061 0,-0.50508 0.0626,-1.01405 0,-1.51523 -0.06,-0.48001 -0.76684,-3.89685 -1.01016,-4.54569 -1.56753,-4.18008 -0.65724,0.4015 -2.0203,-5.05076 -0.24838,-0.99351 -0.33672,-2.0203 -0.50508,-3.03046 -0.50507,-1.17851 -1.13816,-2.31005 -1.51523,-3.53553 -0.30117,-0.9788 -0.18123,-2.05892 -0.50507,-3.03046 -0.35715,-1.07143 -1.08085,-1.98795 -1.51523,-3.03046 -0.0277,-0.0664 -2.00362,-6.02754 -2.02031,-6.06091 -1.14952,-2.29905 -2.56608,-3.52836 -4.04061,-5.55584 -1.42814,-1.9637 -2.69374,-4.04061 -4.04061,-6.06092 -0.67343,-1.01015 -1.20814,-2.12806 -2.0203,-3.03045 -0.72116,-0.80129 -1.71966,-1.30411 -2.52538,-2.02031 -1.42364,-1.26545 -2.69374,-2.69374 -4.04061,-4.04061 -2.02031,-2.0203 -4.04061,-4.04061 -6.06092,-6.06091 -1.34687,-1.34687 -2.69374,-2.69374 -4.04061,-4.04061 -0.67343,-0.67344 -1.39316,-1.30357 -2.02031,-2.02031 -0.55432,-0.63351 -0.9609,-1.38679 -1.51522,-2.0203 -0.62715,-0.71674 -1.34687,-1.34687 -2.02031,-2.02031 -0.67343,-0.67343 -1.30356,-1.39316 -2.0203,-2.0203 -0.51014,-0.44638 -2.75908,-2.08169 -3.53554,-2.52539 -0.65372,-0.37355 -1.36213,-0.6445 -2.0203,-1.01015 -0.85816,-0.47675 -1.6028,-1.17974 -2.52538,-1.51523 -0.96243,-0.34997 -2.0326,-0.2748 -3.03046,-0.50507 -1.19428,-0.27561 -2.38127,-0.59792 -3.53554,-1.01016 -1.20748,-0.43124 -2.30268,-1.16298 -3.53553,-1.51522 -1.14467,-0.32705 -2.37148,-0.25564 -3.53553,-0.50508 -1.19847,-0.25681 -2.33707,-0.75334 -3.53554,-1.01015 -1.16405,-0.24944 -2.39086,-0.17803 -3.53553,-0.50508 -6.92974,-2.96989 -0.13076,-0.41869 -7.07107,-2.0203 -1.03753,-0.23943 -2.0203,-0.67344 -3.03046,-1.01016 -1.01015,-0.33671 -2.04182,-0.61469 -3.03045,-1.01015 -0.15632,-0.0625 0.62412,0.11905 0.50507,0 -0.2662,-0.2662 -0.66061,-0.36526 -1.01015,-0.50508 -0.49432,-0.19772 -1.02091,-0.30734 -1.51523,-0.50507 -0.34954,-0.13982 -0.66062,-0.36526 -1.01015,-0.50508 -0.49432,-0.19773 -1.01015,-0.33672 -1.51523,-0.50507 -1.01015,-0.33672 -2.00663,-0.71764 -3.03046,-1.01016 -0.66745,-0.1907 -1.35285,-0.31437 -2.0203,-0.50507 -0.51192,-0.14626 -0.99008,-0.41755 -1.51523,-0.50508 -0.49821,-0.083 -1.01015,0 -1.51523,0 -0.50508,-0.16836 -0.99317,-0.40066 -1.51523,-0.50508 -0.33018,-0.066 -0.68349,0.0817 -1.01015,0 -0.36522,-0.0913 -0.64493,-0.41377 -1.01015,-0.50507 -0.32667,-0.0817 -0.68349,0.0817 -1.01016,0 -0.36522,-0.0913 -0.64493,-0.41377 -1.01015,-0.50508 -0.32666,-0.0817 -0.68349,0.0817 -1.01015,0 -0.36522,-0.0913 -0.64493,-0.41377 -1.01016,-0.50507 -0.47536,-0.11885 -1.03986,0.11884 -1.51522,0 -1.37872,-0.34468 -2.26943,-1.00879 -3.53554,-1.51523 -0.49432,-0.19773 -1.02091,-0.30735 -1.51523,-0.50508 -0.47471,-0.18989 -2.66622,-1.24205 -3.03045,-1.51523 -0.38096,-0.28571 -0.58424,-0.79719 -1.01016,-1.01015 -0.30117,-0.15059 -0.72998,0.18678 -1.01015,0 -0.31323,-0.20882 -0.29625,-0.69692 -0.50508,-1.01015 -0.38852,-0.58278 -1.1267,-0.93245 -1.51522,-1.51523 -0.18678,-0.28017 0.10648,-0.69072 0,-1.01016 -0.11905,-0.35714 -0.41378,-0.64493 -0.50508,-1.01015 -0.16333,-0.65333 0.21296,-1.38143 0,-2.0203 -0.0753,-0.22588 -0.42978,-0.2792 -0.50508,-0.50508 -0.21296,-0.63888 0.16334,-1.36698 0,-2.0203 -0.36621,-1.46484 -0.39405,-0.59108 -1.01015,-1.51523 -1.47063,-2.20595 0.22385,0.16648 -0.50508,-2.02031 -0.0753,-0.22588 -0.33671,-0.33672 -0.50507,-0.50507 -0.33672,-0.33672 -0.67344,-0.67344 -1.01015,-1.01016 -0.33672,-0.33671 -0.67344,-0.67343 -1.01016,-1.01015 -0.16836,-0.16836 -0.30697,-0.373 -0.50507,-0.50508 -0.31324,-0.20882 -0.67344,-0.33671 -1.01016,-0.50507 -0.99708,-0.49854 -2.07486,-0.94187 -3.03045,-1.51523 -0.52052,-0.31231 -0.93936,-0.81819 -1.51523,-1.01015 -0.97154,-0.32385 -2.03076,-0.28292 -3.03046,-0.50508 -0.51972,-0.11549 -1.01015,-0.33672 -1.51523,-0.50508 -0.67343,0 -1.35364,0.0952 -2.0203,0 -0.52705,-0.0753 -0.98819,-0.42978 -1.51523,-0.50507 -0.66667,-0.0952 -1.35207,0.0835 -2.02031,0 -0.6888,-0.0861 -1.33312,-0.40691 -2.0203,-0.50508 -0.5,-0.0714 -1.01703,0.083 -1.51523,0 -5.03192,-0.83865 2.72784,-0.22723 -3.53554,-1.01015 -1.16941,-0.14618 -2.37305,0.19375 -3.53553,0 -0.52515,-0.0875 -0.99007,-0.41755 -1.51523,-0.50508 -0.4982,-0.083 -1.01015,0 -1.51523,0 -0.50507,0 -1.01015,0 -1.51523,0 -1.85194,0 -3.70389,0 -5.55583,0 -1.17852,0 -2.35703,0 -3.53554,0 -0.33672,0 -0.67997,-0.066 -1.01015,0 -0.52206,0.10441 -0.99873,0.37595 -1.51523,0.50508 -1.01015,0.25254 0,-0.50508 -1.51523,0 -0.22588,0.0753 -0.2792,0.42978 -0.50508,0.50508 -0.31943,0.10647 -0.69071,-0.10648 -1.01015,0 -0.22587,0.0753 -0.30697,0.373 -0.50507,0.50507 -0.62647,0.41765 -1.39384,0.59251 -2.02031,1.01015 -0.19811,0.13208 -0.30697,0.37301 -0.50508,0.50508 -2.20594,1.47063 0.16649,-0.22385 -2.0203,0.50508 -0.22588,0.0753 -0.30697,0.373 -0.50508,0.50507 -2.20594,1.47063 0.16649,-0.22385 -2.0203,0.50508 -0.22588,0.0753 -0.33672,0.33672 -0.50508,0.50508 -0.33672,0.16835 -0.64493,0.41377 -1.01015,0.50507 -0.32666,0.0817 -0.69071,-0.10648 -1.01015,0 -0.22588,0.0753 -0.30697,0.37301 -0.50508,0.50508 -0.31323,0.20882 -0.67343,0.33672 -1.01015,0.50507 -0.33672,0.16836 -0.64493,0.41378 -1.01015,0.50508 -0.32667,0.0817 -0.69072,-0.10648 -1.01016,0 -0.22587,0.0753 -0.30697,0.37301 -0.50507,0.50508 -0.31324,0.20882 -0.67344,0.33671 -1.01016,0.50507 -0.67343,0.33672 -1.34687,0.67344 -2.0203,1.01016 -0.33672,0.16835 -0.67344,0.33671 -1.01015,0.50507 -0.33672,0.16836 -0.64493,0.41377 -1.01016,0.50508 -0.32666,0.0817 -0.68348,-0.0817 -1.01015,0 -1.00302,0.25075 -2.02743,1.26447 -3.03046,1.51523 -0.32666,0.0817 -0.68348,-0.0817 -1.01015,0 -0.73044,0.18261 -1.30602,0.77205 -2.0203,1.01015 -0.15972,0.0532 -0.34536,-0.0532 -0.50508,0 -0.35714,0.11905 -0.64493,0.41377 -1.01015,0.50508 -0.32667,0.0817 -0.68349,-0.0817 -1.01015,0 -0.36523,0.0913 -0.64494,0.41377 -1.01016,0.50507 -0.32666,0.0817 -0.68349,-0.0817 -1.01015,0 -0.36522,0.0913 -0.65301,0.38603 -1.01015,0.50508 -0.15972,0.0532 -0.34536,-0.0532 -0.50508,0 -0.35714,0.11905 -0.64493,0.41377 -1.01015,0.50507 -0.3973,0.0993 -2.50522,0 -3.03046,0 -2.52538,0 -5.05076,0 -7.57614,0 -2.18867,0 -4.37733,0 -6.56599,0 -3.17297,-0.92509 -2.54003,1.20741 -5.14616,1.71546"
       id="path4081"
       inkscape:connector-curvature="0"
       transform="translate(0,308.2677)"
       sodipodi:nodetypes="ccccccccscssscsscscccssssssssssccsscsssscsscscsccsscccccccccsssccscssscccscccscssscccccccsccsssscscccsccccccccsccccscccccccccccccccsscc" />
  </g>
</svg>
