<?xml version="1.0" encoding="UTF-8" standalone="no"?>
<!-- Created with Inkscape (http://www.inkscape.org/) -->

<svg
   xmlns:dc="http://purl.org/dc/elements/1.1/"
   xmlns:cc="http://creativecommons.org/ns#"
   xmlns:rdf="http://www.w3.org/1999/02/22-rdf-syntax-ns#"
   xmlns:svg="http://www.w3.org/2000/svg"
   xmlns="http://www.w3.org/2000/svg"
   xmlns:sodipodi="http://sodipodi.sourceforge.net/DTD/sodipodi-0.dtd"
   xmlns:inkscape="http://www.inkscape.org/namespaces/inkscape"
   width="1052.3622"
   height="744.09448"
   id="svg2"
   version="1.1"
   inkscape:version="0.48.5 r10040"
   sodipodi:docname="notInfWork_p-V.pdf">
  <defs
     id="defs4">
    <marker
       inkscape:stockid="Arrow2Mend"
       orient="auto"
       refY="0.0"
       refX="0.0"
       id="Arrow2Mend"
       style="overflow:visible;">
      <path
         id="path3786"
         style="fill-rule:evenodd;stroke-width:0.62500000;stroke-linejoin:round;"
         d="M 8.7185878,4.0337352 L -2.2072895,0.016013256 L 8.7185884,-4.0017078 C 6.9730900,-1.6296469 6.9831476,1.6157441 8.7185878,4.0337352 z "
         transform="scale(0.6) rotate(180) translate(0,0)" />
    </marker>
  </defs>
  <sodipodi:namedview
     id="base"
     pagecolor="#ffffff"
     bordercolor="#666666"
     borderopacity="1.0"
     inkscape:pageopacity="0.0"
     inkscape:pageshadow="2"
     inkscape:zoom="1"
     inkscape:cx="572.65281"
     inkscape:cy="319.48212"
     inkscape:document-units="px"
     inkscape:current-layer="layer1"
     showgrid="false"
     inkscape:window-width="1280"
     inkscape:window-height="744"
     inkscape:window-x="0"
     inkscape:window-y="0"
     inkscape:window-maximized="1" />
  <metadata
     id="metadata7">
    <rdf:RDF>
      <cc:Work
         rdf:about="">
        <dc:format>image/svg+xml</dc:format>
        <dc:type
           rdf:resource="http://purl.org/dc/dcmitype/StillImage" />
        <dc:title></dc:title>
      </cc:Work>
    </rdf:RDF>
  </metadata>
  <g
     inkscape:label="Layer 1"
     inkscape:groupmode="layer"
     id="layer1"
     transform="translate(0,-308.2677)">
    <path
       style="fill:#e6e6e6;fill-opacity:1;fill-rule:nonzero;stroke:none;stroke-width:5;stroke-miterlimit:4;stroke-dasharray:none"
       d="m 530.75103,514.26216 c -3.5236,-1.75956 -4.32788,-2.35566 -7.80229,-5.78277 -3.14852,-3.10566 -4.6807,-5.02446 -8.18434,-10.24955 -2.37084,-3.53572 -5.06723,-7.3125 -5.99197,-8.39286 -2.02234,-2.36266 -2.29695,-2.86998 -3.23589,-5.97796 -0.40126,-1.32819 -1.34121,-3.62025 -2.08878,-5.09347 -1.73578,-3.4206 -2.03494,-4.38772 -2.87893,-9.30686 -0.60635,-3.5341 -0.96121,-4.56687 -2.80816,-8.17278 -1.51354,-2.95496 -2.28388,-4.96636 -2.71171,-7.08042 -0.70078,-3.46271 -1.8584,-6.9557 -4.58436,-13.83279 -1.09005,-2.75 -2.72697,-7.73215 -3.63761,-11.07143 -0.91062,-3.33929 -2.04757,-7.38067 -2.52653,-8.98085 -0.47897,-1.60019 -0.87085,-3.61915 -0.87085,-4.48658 0,-1.72971 -1.52132,-6.58286 -2.9434,-9.38972 -0.4976,-0.98214 -1.11158,-2.4774 -1.36439,-3.32281 -0.29257,-0.97834 -0.90176,-1.88713 -1.67584,-2.5 -0.6689,-0.52959 -2.36855,-2.02086 -3.77699,-3.31392 -1.40845,-1.29306 -3.56528,-3.04402 -4.79296,-3.89103 -1.22767,-0.84701 -2.23214,-1.76723 -2.23214,-2.04493 0,-0.77872 -2.14139,-3.26236 -3.55439,-4.12246 -2.36664,-1.44059 -5.76839,-5.01436 -6.88526,-7.23342 -0.59318,-1.17857 -1.67995,-2.79923 -2.41504,-3.60148 -0.73509,-0.80224 -1.53424,-2.08795 -1.77589,-2.85714 -0.24164,-0.76918 -1.18701,-3.00566 -2.10081,-4.96995 l -1.66147,-3.57143 -0.11172,-6.55055 c -0.0891,-5.22609 0.001,-6.88174 0.44643,-8.18862 0.35998,-1.05647 0.55886,-2.91523 0.56014,-5.23516 0.002,-4.33015 0.27513,-5.40354 2.13898,-8.41852 0.78931,-1.27679 1.62076,-3.20536 1.84766,-4.28572 0.37461,-1.78359 0.5452,-2.02999 1.85443,-2.67857 0.79302,-0.39286 1.93222,-1.332 2.53154,-2.08699 0.98052,-1.23518 1.08772,-1.61638 1.07004,-3.80513 l -0.0196,-2.43244 2.25179,-0.24115 c 1.23848,-0.13263 2.25178,-0.32313 2.25178,-0.42333 0,-0.1002 -0.3508,-0.46624 -0.77955,-0.81343 l -0.77956,-0.63124 0.86884,-0.55228 c 3.95012,-2.51088 5.85362,-3.46107 7.69076,-3.83909 1.15866,-0.23841 2.42808,-0.61228 2.82094,-0.83083 0.39286,-0.21854 1.83929,-0.50171 3.21429,-0.62927 2.53927,-0.23555 4.86267,-0.93464 5.61861,-1.69058 0.22941,-0.2294 0.74657,-0.41792 1.14924,-0.41893 0.40268,-10e-4 1.375,-0.39777 2.16072,-0.88171 0.78571,-0.48393 1.85086,-0.8849 2.36698,-0.89103 0.51613,-0.006 1.13849,-0.25221 1.38302,-0.54686 0.24453,-0.29464 0.91613,-0.53571 1.49243,-0.53571 0.70875,0 1.36459,-0.3468 2.02668,-1.0717 0.78908,-0.86394 1.25251,-1.06482 2.39058,-1.03624 1.60872,0.0404 4.23555,-1.13388 4.89362,-2.18762 0.24197,-0.38744 0.73068,-0.70444 1.08605,-0.70444 0.88544,0 2.64993,-0.9498 3.03165,-1.63189 0.17251,-0.30826 1.5064,-0.87308 2.96418,-1.25515 1.65161,-0.43286 2.85908,-0.96999 3.20391,-1.42521 0.39616,-0.52297 0.97712,-0.73639 2.04468,-0.75113 0.82021,-0.0113 1.67569,-0.24276 1.90106,-0.51431 0.24362,-0.29355 1.09833,-0.49374 2.10802,-0.49374 1.07386,0 1.86172,-0.19696 2.14285,-0.53571 0.63677,-0.76726 14.72925,-0.76726 16.07143,0 0.49107,0.28072 1.85714,0.52179 3.03572,0.53571 1.17857,0.0139 2.54464,0.25499 3.03571,0.53572 0.49107,0.28072 1.31645,0.51609 1.83417,0.52305 0.51773,0.007 1.40166,0.25274 1.96429,0.54617 0.56263,0.29344 1.38672,0.53451 1.8313,0.53572 1.18854,0.003 10.48634,4.77163 11.42145,5.85752 0.44066,0.51171 1.10434,0.93039 1.47483,0.93039 0.3705,0 1.27341,0.73196 2.00648,1.62657 0.73307,0.89461 2.18591,2.108 3.22854,2.69643 1.04263,0.58842 2.31973,1.62581 2.838,2.3053 0.51828,0.67949 1.54644,1.54364 2.28481,1.92032 0.73837,0.37669 1.5523,0.93771 1.80875,1.24671 0.25645,0.309 0.93092,0.56182 1.49881,0.56182 0.5679,0 1.31162,0.14421 1.6527,0.32048 0.34109,0.17626 1.34337,0.61363 2.2273,0.97194 0.88393,0.3583 1.73179,0.85003 1.88414,1.09272 0.15236,0.2427 1.197,0.7064 2.32143,1.03046 1.12444,0.32406 2.5722,0.81312 3.21726,1.0868 0.64506,0.27368 1.62984,0.4976 2.18841,0.4976 0.55857,0 1.21565,0.24107 1.46019,0.53571 0.24453,0.29464 0.70844,0.53571 1.03091,0.53571 0.32247,0 1.46797,0.33538 2.54556,0.74529 1.07758,0.40991 2.59878,0.90115 3.38045,1.09164 0.78166,0.19049 2.56931,0.98011 3.97254,1.75471 1.70501,0.94119 2.99903,1.40836 3.90098,1.40836 1.31209,0 2.24542,0.52957 5.51867,3.13126 0.56038,0.4454 1.87625,1.19299 2.92416,1.66129 1.04792,0.46831 2.4678,1.44987 3.1553,2.18124 0.6875,0.73136 2.06054,1.85587 3.05119,2.49889 0.99066,0.64302 2.02455,1.43826 2.29754,1.76719 0.27299,0.32893 1.06959,0.89103 1.77023,1.24912 0.70065,0.35809 1.79795,1.22789 2.43845,1.93288 0.6405,0.705 1.7655,1.59467 2.5,1.97703 1.75087,0.91148 21.90618,21.20879 22.92528,23.0868 0.46623,0.85919 1.19925,1.60566 1.79905,1.83205 0.55672,0.21014 1.4107,1.00408 1.89773,1.76431 0.48702,0.76023 1.47961,1.94473 2.20574,2.63223 0.72613,0.6875 1.61583,1.8125 1.97711,2.5 0.36128,0.6875 2.27577,2.85413 4.25442,4.81473 1.97865,1.9606 3.59754,3.74696 3.59754,3.96969 0,0.74865 1.4434,2.2589 1.96691,2.05801 0.33456,-0.12838 0.71814,0.23568 1.10659,1.05026 0.34443,0.72227 1.13614,1.53197 1.88199,1.92474 1.03786,0.54654 1.33034,0.94183 1.50867,2.0389 0.21547,1.32558 0.7613,1.98423 1.65359,1.99534 0.24154,0.003 0.75024,0.60815 1.13045,1.34476 0.3802,0.73661 1.36164,1.98214 2.18097,2.76786 0.81933,0.78571 1.90039,2.23214 2.40236,3.21428 0.50197,0.98214 1.26867,2.26786 1.70379,2.85714 0.43511,0.58929 1.53731,2.56895 2.44933,4.39925 1.24646,2.50149 1.66135,3.74303 1.67087,5 0.007,0.9197 0.24233,2.07397 0.52306,2.56504 0.33181,0.58046 0.51926,2.0175 0.53571,4.10714 0.0165,2.08965 0.2039,3.52669 0.53571,4.10715 0.36233,0.63381 0.51379,2.13625 0.52206,5.17857 l 0.0117,4.28571 -2.07928,0 c -1.65367,0 -2.37308,0.19451 -3.51462,0.95027 -3.3573,2.22273 -3.65769,7.24222 -0.60291,10.07477 l 0.93752,0.86932 -2.81578,0.25702 c -1.54869,0.14136 -2.93978,0.32942 -3.09133,0.41792 -0.15154,0.0885 0.0716,0.44201 0.49588,0.78557 l 0.77141,0.62465 -1.21016,0.45475 c -1.28653,0.48345 -2.92031,1.07676 -4.96016,1.80127 -0.6875,0.24419 -1.65179,0.52855 -2.14286,0.6319 -0.49107,0.10336 -1.21429,0.47113 -1.60714,0.81727 -0.39286,0.34615 -1.5555,1.05029 -2.58364,1.56476 -1.39337,0.69723 -2.05836,1.3059 -2.61166,2.39045 -0.45205,0.8861 -0.92602,1.38455 -1.21213,1.27476 -0.68899,-0.2644 -1.27113,0.47799 -1.27113,1.62104 0,1.13181 -1.10679,2.42857 -2.0728,2.42857 -0.35432,0 -1.18942,0.5625 -1.85577,1.25 -0.66635,0.6875 -1.41739,1.25 -1.66897,1.25 -0.66443,0 -1.59968,1.58563 -1.33779,2.26809 0.23883,0.6224 0.12352,0.68943 -2.21302,1.28652 -0.80838,0.20658 -2.0941,0.8781 -2.85714,1.49228 -0.76305,0.61418 -2.50783,1.65845 -3.87729,2.32061 -2.11785,1.02402 -2.86502,1.20203 -5,1.19127 -1.49906,-0.008 -2.86971,-0.21824 -3.40294,-0.52306 -0.58455,-0.33416 -2.00276,-0.51611 -4.10714,-0.52692 -1.76786,-0.009 -3.9994,-0.25471 -4.95899,-0.54582 -1.15782,-0.35125 -2.39124,-0.45331 -3.66676,-0.30339 -1.51975,0.17861 -2.05997,0.10108 -2.58096,-0.37041 -0.58551,-0.52987 -1.93068,-0.59851 -12.07509,-0.61614 l -11.41618,-0.0198 -4.65623,1.48154 c -3.97771,1.26564 -4.72555,1.62138 -5.13192,2.44125 -0.26162,0.52785 -1.18519,1.70661 -2.05237,2.61948 -1.29997,1.36846 -1.61028,1.96392 -1.76808,3.39286 -0.13857,1.25478 -0.47094,2.02119 -1.20428,2.77692 -0.55709,0.5741 -1.27563,1.77946 -1.59675,2.67857 -0.32113,0.89912 -1.32654,3.22396 -2.23424,5.16632 -1.33401,2.8546 -1.90778,3.69408 -2.99324,4.37929 -1.13097,0.71395 -1.43841,1.19138 -1.94839,3.02569 -0.51009,1.83467 -0.81733,2.31166 -1.94924,3.02621 -0.73904,0.46653 -1.53772,1.2122 -1.77484,1.65703 -0.74887,1.40487 -4.67798,5.28735 -7.38446,7.29682 -1.43346,1.06431 -2.69335,2.16195 -2.79975,2.43921 -0.26357,0.68686 -2.11257,1.73646 -4.39375,2.49414 -1.04131,0.34587 -2.20051,0.93607 -2.57601,1.31157 -1.03038,1.03038 -3.6992,1.37633 -10.44079,1.35339 l -6.11196,-0.0208 -3.92858,-1.96179 0,0 z"
       id="path4685"
       inkscape:connector-curvature="0"
       transform="translate(0,308.2677)" />
    <path
       style="fill:none;stroke:#000000;stroke-width:3;stroke-linecap:butt;stroke-linejoin:miter;stroke-opacity:1;marker-end:url(#Arrow2Mend);stroke-miterlimit:4;stroke-dasharray:none"
       d="m 333.08482,940.14903 467.70201,0"
       id="path2985"
       inkscape:connector-curvature="0" />
    <path
       inkscape:connector-curvature="0"
       id="path4212"
       d="m 358.08948,967.11638 0,-467.70204"
       style="fill:none;stroke:#000000;stroke-width:3;stroke-linecap:butt;stroke-linejoin:miter;stroke-miterlimit:4;stroke-opacity:1;stroke-dasharray:none;marker-end:url(#Arrow2Mend)" />
    <flowRoot
       xml:space="preserve"
       id="flowRoot4252"
       style="font-size:20px;font-style:normal;font-weight:normal;text-align:center;line-height:125%;letter-spacing:0px;word-spacing:0px;text-anchor:middle;fill:#000000;fill-opacity:1;stroke:none;font-family:Sans"
       transform="translate(-87.182746,348.2677)"><flowRegion
         id="flowRegion4254"><rect
           id="rect4256"
           width="94.954338"
           height="68.690376"
           x="838.42664"
           y="616.81525"
           style="font-size:20px;text-align:center;text-anchor:middle" /></flowRegion><flowPara
         id="flowPara4258">$V$</flowPara></flowRoot>    <flowRoot
       transform="translate(-563.95224,-133.68893)"
       xml:space="preserve"
       id="flowRoot4252-2"
       style="font-size:20px;font-style:normal;font-weight:normal;text-align:center;line-height:125%;letter-spacing:0px;word-spacing:0px;text-anchor:middle;fill:#000000;fill-opacity:1;stroke:none;font-family:Sans"><flowRegion
         id="flowRegion4254-5"><rect
           id="rect4256-4"
           width="94.954338"
           height="68.690376"
           x="838.42664"
           y="616.81525"
           style="font-size:20px;text-align:center;text-anchor:middle" /></flowRegion><flowPara
         id="flowPara4258-9">$p$</flowPara></flowRoot>    <path
       sodipodi:type="arc"
       style="fill:#000000;fill-opacity:1;fill-rule:nonzero;stroke:none"
       id="path4289"
       sodipodi:cx="486.60715"
       sodipodi:cy="278.20163"
       sodipodi:rx="6.25"
       sodipodi:ry="6.25"
       d="m 492.85715,278.20163 a 6.25,6.25 0 1 1 -12.5,0 6.25,6.25 0 1 1 12.5,0 z"
       transform="translate(-34.285715,353.98198)" />
    <path
       sodipodi:type="arc"
       style="fill:#000000;fill-opacity:1;fill-rule:nonzero;stroke:none"
       id="path4289-9"
       sodipodi:cx="486.60715"
       sodipodi:cy="278.20163"
       sodipodi:rx="6.25"
       sodipodi:ry="6.25"
       d="m 492.85715,278.20163 a 6.25,6.25 0 1 1 -12.5,0 6.25,6.25 0 1 1 12.5,0 z"
       transform="translate(197.67857,469.87484)" />
    <path
       style="fill:none;stroke:#000000;stroke-width:3;stroke-linecap:butt;stroke-linejoin:miter;stroke-miterlimit:4;stroke-opacity:1;stroke-dasharray:none;marker-end:url(#Arrow2Mend)"
       d="m 453.55849,326.90148 c -0.38421,1.92107 -0.98491,6.01043 -2.0203,8.08122 -0.54294,1.08588 -1.54207,1.91457 -2.02031,3.03046 -1.25515,2.92868 -1.01015,4.17438 -1.01015,7.07107 0,1.01015 0.16607,2.03405 0,3.03045 -0.17505,1.05031 -0.8351,1.98016 -1.01015,3.03046 -0.27678,1.66068 0,3.36718 0,5.05077 0,1.53205 -0.22605,6.72496 0,8.08122 0.44077,2.64461 2.06541,4.65845 3.03046,7.07106 0.58206,1.45516 1.00502,3.69706 2.0203,5.05077 0.57143,0.7619 1.44888,1.2584 2.02031,2.0203 0.25973,0.34632 1.76056,3.6943 2.0203,4.04061 0.57143,0.76191 1.34687,1.34687 2.02031,2.02031 0.67343,0.67343 1.27662,1.42535 2.0203,2.0203 0.94802,0.75841 2.17199,1.16184 3.03046,2.02031 5.25034,5.25034 -0.95759,1.0522 4.04061,5.05076 0.94801,0.75841 2.08244,1.26189 3.03046,2.0203 1.48737,1.1899 2.55324,2.85072 4.04061,4.04061 0.94801,0.75842 2.27204,1.07229 3.03045,2.02031 0.66518,0.83146 0.6147,2.04182 1.01016,3.03046 0.7205,1.80127 1.29979,2.23934 2.0203,4.04061 0.39546,0.98863 0.67344,2.0203 1.01015,3.03046 0.33672,1.01015 0.83511,1.98015 1.01016,3.03045 0.16606,0.99641 -0.16607,2.03405 0,3.03046 0.17505,1.05031 0.71763,2.00663 1.01015,3.03046 0.3814,1.3349 0.67343,2.69374 1.01015,4.04061 3.1579,12.6316 -0.87805,-3.07318 2.02031,7.07107 0.3814,1.3349 0.57112,2.72353 1.01015,4.04061 0.57341,1.72022 1.34687,3.36717 2.0203,5.05076 1.54924,3.87308 2.92902,7.03584 4.04061,11.11168 0.45176,1.65643 0.42341,3.4372 1.01016,5.05076 0.77192,2.12278 2.2196,3.9527 3.03045,6.06091 2.39554,3.6673 1.60711,8.20763 3.03046,12.12184 0.77192,2.12277 2.1617,3.97589 3.03046,6.06091 0.81907,1.96577 1.00055,4.19136 2.02031,6.06092 1.03242,1.89278 2.77248,3.30709 4.04061,5.05076 1.42814,1.96369 2.69374,4.04061 4.04061,6.06091 5.09718,7.64578 2.32368,4.34399 8.08122,10.10153 1.34687,1.34687 2.5168,2.89775 4.04061,4.04061 1.20467,0.90351 2.69374,1.34687 4.04061,2.0203 1.34687,0.67344 2.61204,1.54412 4.04061,2.02031 0.37042,0.12347 5.8876,0 6.06091,0 2.10403,0 2.73575,0 5.05076,0 0.67344,0 1.35604,0.11071 2.02031,0 12.0877,-2.01462 0.45724,0.27645 5.05076,-2.02031 0.95238,-0.47619 2.07808,-0.53396 3.03046,-1.01015 4.14554,-2.07277 1.91888,-1.5351 5.05076,-4.04061 0.94802,-0.75841 2.08244,-1.26189 3.03046,-2.0203 0.74368,-0.59495 1.34687,-1.34687 2.02031,-2.02031 0.67343,-0.67343 1.42535,-1.27662 2.0203,-2.0203 0.75841,-0.94802 1.16184,-2.172 2.02031,-3.03046 0.53239,-0.5324 1.56855,-0.40781 2.0203,-1.01015 1.18347,-1.57796 0.57977,-3.61023 2.02031,-5.05077 0.53239,-0.53239 1.4879,-0.47775 2.0203,-1.01015 0.24509,-0.24509 2.81199,-5.51475 3.03046,-6.06091 0.82137,-2.05343 0.83581,-3.27403 2.0203,-5.05077 1.23221,-1.84831 1.28789,-0.10078 2.02031,-3.03045 0.16333,-0.65333 -0.21296,-1.38143 0,-2.02031 0.18224,-0.54673 2.58803,-2.36681 3.03046,-3.03046 0.41764,-0.62647 0.40781,-1.56855 1.01015,-2.0203 0.85183,-0.63888 2.0203,-0.67344 3.03046,-1.01015 1.01015,-0.33672 2.0203,-0.67344 3.03045,-1.01016 1.01016,-0.33671 1.98635,-0.80133 3.03046,-1.01015 1.32072,-0.26414 2.69374,0 4.04061,0 2.69374,0 5.38748,0 8.08122,0 2.35702,0 4.71405,0 7.07107,0 1.01015,0 2.05047,-0.245 3.03046,0 0.46197,0.11549 0.54818,0.89466 1.01015,1.01015 1.60819,0.6125 3.41744,-0.40833 5.05076,0 5.24529,1.31132 -1.07838,1.01016 4.04061,1.01016 0.82702,0 4.39627,-0.21817 5.05077,0 0.71428,0.23809 1.30602,0.77205 2.0203,1.01015 0.45002,0.15 4.82475,0.0753 5.05076,0 0.89181,-0.29727 5.26158,-2.49757 6.06092,-3.03046 0.39621,-0.26414 0.61394,-0.74601 1.01015,-1.01015 0.62647,-0.41765 1.32123,-0.73053 2.02031,-1.01016 0.98863,-0.39545 2.27753,-0.25722 3.03045,-1.01015 0.47619,-0.47619 -0.37355,-1.45997 0,-2.0203 0.41765,-0.62647 1.39384,-0.59251 2.02031,-1.01016 0.79243,-0.52828 1.16847,-1.59438 2.0203,-2.0203 0.30117,-0.15058 0.70899,0.15058 1.01016,0 0.42591,-0.21296 0.67343,-0.67344 1.01015,-1.01015 0.33672,-0.33672 0.85957,-0.5584 1.01015,-1.01016 0.21296,-0.63887 -0.30117,-1.41796 0,-2.0203 0.15059,-0.30117 0.70899,0.15058 1.01015,0 0.42592,-0.21296 0.74601,-0.61394 1.01016,-1.01015 0.41764,-0.62647 0.47775,-1.48791 1.01015,-2.02031 0.0647,-0.0647 3.85245,-1.89486 4.04061,-2.0203 0.39621,-0.26415 0.58423,-0.7972 1.01015,-1.01016 0.30117,-0.15058 0.69072,0.10648 1.01016,0 0.71428,-0.23809 1.30601,-0.77205 2.0203,-1.01015 0.31944,-0.10648 0.67344,0 1.01015,0 0.67344,-0.33672 1.30602,-0.77206 2.02031,-1.01015 0.31944,-0.10648 0.69071,0.10648 1.01015,0 0.4916,-0.80646 -2.43946,0.59645 1.2627,-1.89404"
       id="path4311"
       inkscape:connector-curvature="0"
       transform="translate(0,308.2677)"
       sodipodi:nodetypes="csssssssssccssssssssscssssssssscsssssssssssssssssscsssssssssccssssscsssccsssssscccccscsccsscscc" />
    <path
       style="fill:none;stroke:#000000;stroke-width:3;stroke-linecap:butt;stroke-linejoin:miter;stroke-miterlimit:4;stroke-opacity:1;stroke-dasharray:none;marker-end:url(#Arrow2Mend)"
       d="m 684.88343,439.02841 c 0.67343,-1.34687 1.54411,-2.61204 2.0203,-4.04061 0.21296,-0.63887 0,-1.34687 0,-2.0203 0,-0.67344 0,-1.34687 0,-2.02031 0,-1.05048 0.19865,-5.26631 0,-6.06091 -0.18261,-0.73044 -0.82754,-1.28986 -1.01015,-2.02031 -0.43847,-1.75387 0.43847,-4.30704 0,-6.06091 -0.18261,-0.73045 -0.82754,-1.28986 -1.01015,-2.02031 -0.245,-0.97999 0.31943,-2.07214 0,-3.03045 -0.47619,-1.42858 -1.34687,-2.69375 -2.02031,-4.04062 -0.67343,-1.34687 -1.18501,-2.78767 -2.0203,-4.04061 -0.26415,-0.39621 -0.74601,-0.61393 -1.01016,-1.01015 -0.83529,-1.25294 -1.11679,-2.83593 -2.0203,-4.04061 -0.85714,-1.14286 -2.23803,-1.84181 -3.03046,-3.03046 -0.41765,-0.62647 -0.47776,-1.4879 -1.01015,-2.0203 -0.5324,-0.5324 -1.60266,-0.38368 -2.02031,-1.01015 -0.37355,-0.56034 0.21296,-1.38143 0,-2.02031 -0.38678,-1.16034 -2.41166,-1.40151 -3.03045,-2.0203 -0.5324,-0.5324 -0.47776,-1.48791 -1.01016,-2.02031 -6.73435,-6.73435 2.35703,5.05076 -3.03046,-3.03046 -0.52828,-0.79243 -1.34687,-1.34687 -2.0203,-2.0203 -1.34687,-1.34687 -2.69374,-2.69374 -4.04061,-4.04061 -0.33672,-0.33672 -0.74601,-0.61394 -1.01015,-1.01015 -0.41765,-0.62647 -0.59251,-1.39384 -1.01016,-2.02031 -0.79242,-1.18864 -2.17331,-1.8876 -3.03045,-3.03046 -0.45176,-0.60234 -0.47776,-1.4879 -1.01016,-2.0203 -2.45346,-2.45346 -1.48333,0.30038 -3.03045,-2.02031 -0.41765,-0.62647 -0.59251,-1.39383 -1.01016,-2.0203 -0.63021,-0.94532 -3.39366,-3.39367 -4.04061,-4.04061 -2.35702,-2.35702 -4.71404,-4.71405 -7.07106,-7.07107 -2.35703,-2.35702 -4.71405,-4.71405 -7.07107,-7.07107 -1.01015,-1.01015 -1.8876,-2.17331 -3.03046,-3.03046 -0.60234,-0.45175 -1.39383,-0.5925 -2.0203,-1.01015 -1.18865,-0.79243 -1.8876,-2.17331 -3.03046,-3.03046 -0.60234,-0.45175 -1.41797,-0.55839 -2.02031,-1.01015 -4.3692,-4.3692 0.2676,-0.15832 -4.04061,-3.03046 -1.18864,-0.79242 -1.8876,-2.17331 -3.03045,-3.03045 -1.20468,-0.90351 -2.78768,-1.18502 -4.04062,-2.02031 -0.39621,-0.26414 -0.61393,-0.74601 -1.01015,-1.01015 -0.62647,-0.41765 -1.39383,-0.59251 -2.0203,-1.01015 -0.39622,-0.26415 -0.61394,-0.74601 -1.01016,-1.01016 -3.43392,-2.28928 -0.54175,-0.13543 -4.04061,-1.01015 -0.73044,-0.18261 -1.34687,-0.67343 -2.0203,-1.01015 -1.34687,-0.67344 -2.61204,-1.54412 -4.04061,-2.02031 -0.31944,-0.10648 -0.67344,0 -1.01015,0 -0.67344,-0.33671 -1.30602,-0.77205 -2.02031,-1.01015 -0.31944,-0.10648 -0.69071,0.10648 -1.01015,0 -0.71429,-0.23809 -1.30602,-0.77206 -2.02031,-1.01015 -0.31943,-0.10648 -0.70898,0.15058 -1.01015,0 -0.42592,-0.21296 -0.5584,-0.85957 -1.01015,-1.01015 -0.63888,-0.21296 -1.36698,0.16333 -2.02031,0 -0.73044,-0.18261 -1.30602,-0.77206 -2.0203,-1.01016 -0.31944,-0.10648 -0.69072,0.10648 -1.01015,0 -7.31696,-2.43898 1.59261,0.29123 -3.03046,-2.0203 -0.30117,-0.15059 -0.69072,0.10648 -1.01015,0 -0.71429,-0.2381 -1.30602,-0.77206 -2.02031,-1.01015 -0.31944,-0.10648 -0.70898,0.15058 -1.01015,0 -0.42592,-0.21296 -0.5584,-0.85957 -1.01015,-1.01016 -0.63888,-0.21296 -1.38143,0.21296 -2.02031,0 -0.45175,-0.15058 -0.61394,-0.74601 -1.01015,-1.01015 -0.62647,-0.41765 -1.39384,-0.59251 -2.02031,-1.01015 -1.16556,-0.77704 -1.86489,-2.25342 -3.03045,-3.03046 -0.62647,-0.41765 -1.39384,-0.59251 -2.02031,-1.01015 -0.87166,-0.58111 -2.24144,-2.24144 -3.03046,-3.03046 -0.33671,-0.33672 -0.58423,-0.79719 -1.01015,-1.01015 -0.30117,-0.15059 -0.70898,0.15058 -1.01015,0 -0.85184,-0.42592 -1.22788,-1.49202 -2.02031,-2.02031 -0.62647,-0.41764 -1.34687,-0.67343 -2.0203,-1.01015 -1.35184,-0.67592 -2.68878,-1.34439 -4.04061,-2.0203 -0.67344,-0.33672 -1.34687,-0.67344 -2.02031,-1.01016 -0.67343,-0.33672 -1.28986,-0.82754 -2.0203,-1.01015 -0.65333,-0.16333 -1.38143,0.21296 -2.02031,0 -0.45175,-0.15058 -0.5584,-0.85957 -1.01015,-1.01015 -0.63888,-0.21296 -1.36698,0.16333 -2.02031,0 -0.73044,-0.18261 -1.28986,-0.82754 -2.0203,-1.01016 -1.30666,-0.32666 -2.73396,0.32667 -4.04061,0 -0.73044,-0.18261 -1.30602,-0.77205 -2.02031,-1.01015 -0.68619,-0.22873 -5.7681,0 -7.07106,0 -2.02031,0 -4.04061,0 -6.06092,0 -0.67343,0 -1.38143,-0.21296 -2.0203,0 -0.45176,0.15059 -0.58424,0.7972 -1.01016,1.01015 -0.30117,0.15059 -0.67343,0 -1.01015,0 -0.67343,0 -1.38143,-0.21295 -2.0203,0 -0.45176,0.15059 -0.67344,0.67344 -1.01016,1.01016 -0.67343,0 -1.36697,-0.16333 -2.0203,0 -4.87797,1.21949 0.0501,0.48004 -3.03046,2.0203 -0.30117,0.15059 -0.69071,-0.10648 -1.01015,0 -7.31696,2.43899 0.58246,-1.04884 -4.04061,1.2627 -0.30117,0.15058 0.31944,0.65113 0,0.75761 -0.71429,0.23809 -1.30602,0.77205 -2.02031,1.01015 -0.31944,0.10648 -0.70898,-0.15058 -1.01015,0 -0.85184,0.42592 -1.16847,1.59439 -2.02031,2.02031 -0.30116,0.15058 -0.67343,0 -1.01015,0 -0.33672,0.33671 -0.58423,0.79719 -1.01015,1.01015 -0.60234,0.30117 -1.38143,-0.21296 -2.02031,0 -1.82831,-0.60885 -1.8787,1.63639 -3.03045,2.0203 -0.63888,0.21296 -1.38143,-0.21296 -2.02031,0 -0.45175,0.15059 -0.58423,0.7972 -1.01015,1.01016 -0.30117,0.15058 -0.69071,-0.10648 -1.01015,0 -2.24803,0.74934 -1.79259,1.27096 -4.04061,2.0203 -0.31944,0.10648 -0.70899,-0.15058 -1.01016,0 -0.42591,0.21296 -0.58423,0.79719 -1.01015,1.01015 -0.30117,0.15059 -0.69071,-0.10648 -1.01015,0 -0.71429,0.2381 -1.28986,0.82754 -2.02031,1.01016 -1.30665,0.32666 -2.73395,-0.32667 -4.04061,0 -0.73044,0.18261 -1.30602,0.77205 -2.0203,1.01015 -0.63888,0.21296 -3.43828,0.58271 -4.04062,0.88388 -0.85183,0.42592 -3.73564,3.97557 -4.58747,4.40148"
       id="path4313"
       inkscape:connector-curvature="0"
       transform="translate(0,308.2677)"
       sodipodi:nodetypes="cssssssssscsssscsssssssssssssssssscsssccsssscssccsssscssccssssscccsssssssscssssscsccscscsscscscsccssccscsssc" />
    <flowRoot
       xml:space="preserve"
       id="flowRoot6148"
       style="font-size:20px;font-style:normal;font-weight:normal;line-height:125%;letter-spacing:0px;word-spacing:0px;fill:#000000;fill-opacity:1;stroke:none;font-family:Sans"
       transform="translate(-12,382.2677)"><flowRegion
         id="flowRegion6150"><rect
           id="rect6152"
           width="95"
           height="62"
           x="446"
           y="211.09448"
           style="font-size:20px" /></flowRegion><flowPara
         id="flowPara6154">1</flowPara></flowRoot>    <flowRoot
       xml:space="preserve"
       id="flowRoot6148-4"
       style="font-size:20px;font-style:normal;font-weight:normal;line-height:125%;letter-spacing:0px;word-spacing:0px;fill:#000000;fill-opacity:1;stroke:none;font-family:Sans"
       transform="translate(259.92383,518.97854)"><flowRegion
         id="flowRegion6150-8"><rect
           id="rect6152-7"
           width="95"
           height="62"
           x="446"
           y="211.09448"
           style="font-size:20px" /></flowRegion><flowPara
         id="flowPara6154-7">2</flowPara></flowRoot>  </g>
</svg>
